ply
format ascii 1.0
comment Created by Blender 2.71 (sub 0) - www.blender.org
element vertex 81
property float x
property float y
property float z
property float nx
property float ny
property float nz
property float s
property float t
element face 128
property list uchar uint vertex_indices
end_header
1.000000 0.000000 0.800000 0.009919 -0.074618 0.997162 1.000000 0.000000
1.000000 0.125000 0.784742 0.121494 0.080294 0.989319 1.000000 0.125000
0.875000 0.125000 0.810599 0.187139 0.039888 0.981506 0.875000 0.125000
0.000000 0.000000 0.800000 -0.227058 0.117985 0.966674 0.000000 0.000000
0.125000 0.000000 0.829362 0.054994 0.296609 0.953398 0.125000 0.000000
0.000000 0.125000 0.784742 -0.041108 0.062258 0.997192 0.000000 0.125000
0.500000 0.500000 0.800000 0.050874 -0.201941 0.978057 0.500000 0.500000
0.500000 0.625000 0.828772 -0.032258 -0.043489 0.998505 0.500000 0.625000
0.375000 0.625000 0.805497 -0.188940 -0.087283 0.978088 0.375000 0.625000
0.625000 0.500000 0.786207 0.006989 -0.301859 0.953307 0.625000 0.500000
1.000000 0.500000 0.800000 -0.229347 -0.053682 0.971831 1.000000 0.500000
1.000000 0.625000 0.829934 0.171361 -0.076296 0.982238 1.000000 0.625000
0.875000 0.625000 0.841980 -0.040468 -0.232429 0.971740 0.875000 0.625000
0.000000 0.500000 0.800000 0.112125 -0.042909 0.992737 0.000000 0.500000
0.125000 0.500000 0.797922 0.091494 0.155370 0.983581 0.125000 0.500000
0.000000 0.625000 0.829934 0.500015 0.151677 0.852596 0.000000 0.625000
0.125000 0.375000 0.792884 0.104312 -0.008240 0.994507 0.125000 0.375000
0.500000 0.000000 0.800000 0.011261 0.020722 0.999695 0.500000 0.000000
0.625000 0.000000 0.806468 0.037477 0.170049 0.984710 0.625000 0.000000
0.500000 0.125000 0.792788 0.090945 0.033479 0.995270 0.500000 0.125000
0.750000 0.250000 0.800000 0.058962 0.359233 0.931364 0.750000 0.250000
0.750000 0.375000 0.744735 -0.049471 -0.015442 0.998627 0.750000 0.375000
0.625000 0.375000 0.747840 0.088900 0.039674 0.995239 0.625000 0.375000
0.875000 0.250000 0.784728 0.004669 0.173193 0.984863 0.875000 0.250000
1.000000 0.250000 0.800000 -0.239875 -0.105686 0.965026 1.000000 0.250000
1.000000 0.375000 0.843873 -0.481857 -0.047487 0.874935 1.000000 0.375000
0.875000 0.375000 0.765152 -0.243019 -0.011780 0.969939 0.875000 0.375000
0.000000 0.250000 0.800000 0.113102 -0.197943 0.973632 0.000000 0.250000
0.125000 0.250000 0.781466 0.058809 -0.102237 0.993011 0.125000 0.250000
0.000000 0.375000 0.843873 0.321482 0.051088 0.945524 0.000000 0.375000
0.125000 0.125000 0.782053 0.085726 0.149022 0.985107 0.125000 0.125000
0.250000 0.000000 0.800000 0.076754 0.255257 0.963805 0.250000 0.000000
0.375000 0.000000 0.800055 -0.078829 -0.011170 0.996796 0.375000 0.000000
0.250000 0.125000 0.771685 -0.100681 -0.006897 0.994873 0.250000 0.125000
0.250000 0.750000 0.800000 -0.208930 -0.325327 0.922208 0.250000 0.750000
0.250000 0.875000 0.851086 0.018647 -0.016053 0.999695 0.250000 0.875000
0.125000 0.875000 0.844709 -0.237526 -0.230140 0.943693 0.125000 0.875000
0.375000 0.750000 0.812251 -0.017029 -0.135594 0.990600 0.375000 0.750000
0.500000 0.750000 0.800000 0.090487 0.014679 0.995758 0.500000 0.750000
0.500000 0.875000 0.825032 0.177099 0.043703 0.983215 0.500000 0.875000
0.375000 0.875000 0.844212 0.089206 0.056825 0.994385 0.375000 0.875000
0.625000 0.750000 0.789458 0.018525 0.130985 0.991180 0.625000 0.750000
0.625000 0.625000 0.825228 -0.055513 -0.025636 0.998108 0.625000 0.625000
0.750000 0.500000 0.800000 0.047334 -0.315806 0.947630 0.750000 0.500000
0.875000 0.500000 0.756969 -0.058870 -0.190344 0.979919 0.875000 0.500000
0.750000 0.625000 0.846018 -0.021302 -0.042177 0.998871 0.750000 0.625000
0.750000 0.750000 0.800000 -0.139103 0.261849 0.955016 0.750000 0.750000
0.750000 0.875000 0.752633 -0.024201 0.041322 0.998840 0.750000 0.875000
0.625000 0.875000 0.786795 0.194464 0.020386 0.980682 0.625000 0.875000
0.875000 0.750000 0.851039 -0.024964 0.223029 0.974456 0.875000 0.750000
1.000000 0.750000 0.800000 0.272164 0.271249 0.923215 1.000000 0.750000
1.000000 0.875000 0.783196 -0.055971 0.043733 0.997467 1.000000 0.875000
0.875000 0.875000 0.781680 -0.018281 0.178014 0.983825 0.875000 0.875000
0.000000 0.750000 0.800000 0.453017 0.071963 0.888577 0.000000 0.750000
0.125000 0.750000 0.751303 -0.068819 -0.319590 0.945036 0.125000 0.750000
0.000000 0.875000 0.783196 -0.239509 -0.208319 0.948271 0.000000 0.875000
0.125000 0.625000 0.724795 0.153325 0.148259 0.976959 0.125000 0.625000
0.250000 0.500000 0.800000 -0.042817 0.156743 0.986694 0.250000 0.500000
0.375000 0.500000 0.803199 -0.020966 -0.037446 0.999054 0.375000 0.500000
0.250000 0.625000 0.766772 -0.282479 -0.023408 0.958983 0.250000 0.625000
0.375000 0.375000 0.790902 0.084811 0.030396 0.995911 0.375000 0.375000
0.250000 0.375000 0.801322 -0.000214 0.008087 0.999939 0.250000 0.375000
0.250000 0.250000 0.800000 -0.113804 -0.090060 0.989380 0.250000 0.250000
0.375000 0.125000 0.811318 -0.062899 -0.031526 0.997497 0.375000 0.125000
0.375000 0.250000 0.804058 0.028840 0.052492 0.998199 0.375000 0.250000
0.500000 0.250000 0.800000 0.067629 0.058687 0.995972 0.500000 0.250000
0.625000 0.250000 0.791513 -0.044557 0.168096 0.984741 0.625000 0.250000
0.500000 0.375000 0.773225 0.139927 0.030274 0.989685 0.500000 0.375000
0.625000 0.125000 0.779973 -0.138798 -0.006561 0.990295 0.625000 0.125000
0.750000 0.000000 0.800000 -0.033784 -0.240913 0.969939 0.750000 0.000000
0.875000 0.000000 0.776491 0.028779 -0.293130 0.955626 0.875000 0.000000
0.750000 0.125000 0.851086 -0.057375 -0.033723 0.997772 0.750000 0.125000
0.125000 1.000000 0.829362 -0.069796 0.190313 0.979217 0.125000 1.000000
0.000000 1.000000 0.800000 -0.344157 -0.008362 0.938841 0.000000 1.000000
0.250000 1.000000 0.800000 0.116214 0.363720 0.924223 0.250000 1.000000
0.375000 1.000000 0.800055 0.035737 0.298868 0.953612 0.375000 1.000000
0.500000 1.000000 0.800000 0.063265 0.108921 0.992004 0.500000 1.000000
0.625000 1.000000 0.806468 0.051973 -0.207526 0.976836 0.625000 1.000000
0.750000 1.000000 0.800000 0.016297 -0.261452 0.965056 0.750000 1.000000
0.875000 1.000000 0.776491 0.043214 -0.002441 0.999054 0.875000 1.000000
1.000000 1.000000 0.800000 -0.183233 -0.130955 0.974303 1.000000 1.000000
3 0 1 2
3 3 4 5
3 6 7 8
3 6 9 7
3 10 11 12
3 13 14 15
3 13 16 14
3 17 18 19
3 20 21 22
3 20 23 21
3 24 25 26
3 27 28 29
3 27 30 28
3 31 32 33
3 34 35 36
3 34 37 35
3 38 39 40
3 38 41 39
3 38 42 41
3 43 44 45
3 46 47 48
3 46 49 47
3 50 51 52
3 53 54 55
3 53 56 54
3 57 58 59
3 57 60 58
3 57 61 60
3 62 63 64
3 65 66 67
3 65 68 66
3 69 70 71
3 2 23 20
3 2 1 23
3 1 24 23
3 5 30 27
3 5 4 30
3 4 31 30
3 8 37 34
3 8 7 37
3 7 38 37
3 7 42 38
3 7 9 42
3 9 43 42
3 12 49 46
3 12 11 49
3 11 50 49
3 15 56 53
3 15 14 56
3 14 57 56
3 14 61 57
3 14 16 61
3 16 62 61
3 19 68 65
3 19 18 68
3 18 69 68
3 22 9 6
3 22 21 9
3 21 43 9
3 21 26 43
3 21 23 26
3 23 24 26
3 26 44 43
3 26 25 44
3 25 10 44
3 29 16 13
3 29 28 16
3 28 62 16
3 28 33 62
3 28 30 33
3 30 31 33
3 33 63 62
3 33 32 63
3 32 17 63
3 36 72 73
3 36 35 72
3 35 74 72
3 35 40 74
3 35 37 40
3 37 38 40
3 40 75 74
3 40 39 75
3 39 76 75
3 39 48 76
3 39 41 48
3 41 46 48
3 41 45 46
3 41 42 45
3 42 43 45
3 45 12 46
3 45 44 12
3 44 10 12
3 48 77 76
3 48 47 77
3 47 78 77
3 47 52 78
3 47 49 52
3 49 50 52
3 52 79 78
3 52 51 79
3 51 80 79
3 55 36 73
3 55 54 36
3 54 34 36
3 54 59 34
3 54 56 59
3 56 57 59
3 59 8 34
3 59 58 8
3 58 6 8
3 58 67 6
3 58 60 67
3 60 65 67
3 60 64 65
3 60 61 64
3 61 62 64
3 64 19 65
3 64 63 19
3 63 17 19
3 67 22 6
3 67 66 22
3 66 20 22
3 66 71 20
3 66 68 71
3 68 69 71
3 71 2 20
3 71 70 2
3 70 0 2
