ply
format ascii 1.0
comment Created by Blender 2.71 (sub 0) - www.blender.org
element vertex 116
property float x
property float y
property float z
property float nx
property float ny
property float nz
property float s
property float t
element face 78
property list uchar uint vertex_indices
end_header
1.000000 1.000000 0.800000 -0.624683 0.000000 0.780847 0.312500 1.000000
0.000000 1.000000 0.000000 -0.624683 0.000000 0.780847 0.312500 0.507812
0.000000 0.906250 0.000000 -0.624683 0.000000 0.780847 0.359375 0.507812
0.000000 0.906250 0.000000 0.000000 -1.000000 0.000000 0.359375 0.507812
0.062500 0.906250 0.000000 0.000000 -1.000000 0.000000 0.390625 0.539062
1.000000 0.906250 0.750000 0.000000 -1.000000 0.000000 0.390625 0.968750
1.000000 1.000000 0.750000 0.000000 1.000000 0.000000 0.281250 0.968750
0.062500 1.000000 0.000000 0.000000 1.000000 0.000000 0.281250 0.539062
0.000000 1.000000 0.000000 0.000000 1.000000 0.000000 0.312500 0.507812
1.000000 0.906250 0.750000 0.624683 0.000000 -0.780847 0.234375 0.968750
0.062500 0.906250 0.000000 0.624683 0.000000 -0.780847 0.234375 0.539062
0.062500 1.000000 0.000000 0.624683 0.000000 -0.780847 0.281250 0.539062
0.500000 0.930000 0.375000 0.000000 -1.000000 0.000000 0.996094 1.000000
0.474019 0.945000 0.375000 -0.866024 -0.499985 0.000000 0.949219 1.000000
0.474019 0.945000 0.050000 -0.866024 -0.499985 0.000000 0.949219 0.789062
0.525981 0.945000 0.375000 0.866024 -0.499985 0.000000 0.761719 1.000000
0.500000 0.930000 0.375000 0.000000 -1.000000 0.000000 0.714844 1.000000
0.500000 0.930000 0.050000 0.000000 -1.000000 0.000000 0.714844 0.789062
0.474019 0.975000 0.375000 -0.866024 0.499985 0.000000 0.902344 1.000000
0.500000 0.990000 0.375000 0.000000 0.999969 0.000000 0.855469 1.000000
0.500000 0.990000 0.050000 0.000000 0.999969 0.000000 0.855469 0.789062
0.474019 0.975000 0.050000 -0.866024 0.499985 0.000000 0.902344 0.789062
0.525981 0.975000 0.375000 0.866024 0.499985 0.000000 0.808594 1.000000
0.525981 0.945000 0.050000 0.866024 -0.499985 0.000000 0.761719 0.789062
0.525981 0.975000 0.050000 0.866024 0.499985 0.000000 0.808594 0.789062
0.974019 0.945000 0.750000 -0.866024 -0.499985 0.000000 0.238281 0.500000
0.974019 0.975000 0.750000 -0.866024 0.499985 0.000000 0.191406 0.500000
0.974019 0.975000 0.050000 -0.866024 0.499985 0.000000 0.191406 0.000000
1.000000 0.990000 0.750000 0.000000 1.000000 0.000000 0.144531 0.500000
1.000000 0.990000 0.050000 0.000000 1.000000 0.000000 0.144531 0.000000
1.025981 0.975000 0.750000 0.866024 0.499985 0.000000 0.097656 0.500000
1.025981 0.945000 0.750000 0.866024 -0.499985 0.000000 0.050781 0.500000
1.025981 0.945000 0.050000 0.866024 -0.499985 0.000000 0.050781 0.000000
1.025981 0.975000 0.050000 0.866024 0.499985 0.000000 0.097656 0.000000
1.000000 0.930000 0.750000 0.000000 -1.000000 0.000000 0.285156 0.500000
0.974019 0.945000 0.050000 -0.866024 -0.499985 0.000000 0.238281 0.000000
1.000000 0.930000 0.750000 0.000000 -1.000000 0.000000 0.003906 0.500000
1.000000 0.930000 0.050000 0.000000 -1.000000 0.000000 0.003906 0.000000
0.000000 0.093750 0.000000 -0.624683 0.000000 0.780847 0.429688 0.507812
0.000000 0.000000 0.000000 -0.624683 0.000000 0.780847 0.476562 0.507812
1.000000 0.000000 0.800000 -0.624683 0.000000 0.780847 0.476562 1.000000
0.000000 0.093750 0.000000 0.000000 1.000000 0.000000 0.429688 0.507812
1.000000 0.093750 0.800000 0.000000 1.000000 0.000000 0.429688 1.000000
1.000000 0.093750 0.750000 0.000000 1.000000 0.000000 0.398438 0.968750
0.000000 0.000000 0.000000 0.000000 -1.000000 0.000000 0.476562 0.507812
0.062500 0.000000 0.000000 0.000000 -1.000000 0.000000 0.507812 0.539062
1.000000 0.000000 0.750000 0.000000 -1.000000 0.000000 0.507812 0.968750
0.062500 0.093750 0.000000 0.000000 1.000000 0.000000 0.000000 0.546875
0.125000 0.093750 0.050000 0.000000 1.000000 0.000000 0.031250 0.578125
1.000000 0.093750 0.050000 0.000000 1.000000 0.000000 0.031250 1.000000
0.062500 0.000000 0.000000 0.624683 0.000000 -0.780847 0.507812 0.539062
0.062500 0.093750 0.000000 0.624683 0.000000 -0.780847 0.554688 0.539062
1.000000 0.093750 0.750000 0.624683 0.000000 -0.780847 0.554688 0.968750
0.474019 0.055000 0.050000 -0.866024 0.499985 0.000000 0.761719 0.570312
0.474019 0.055000 0.375000 -0.866024 0.499985 0.000000 0.761719 0.781250
0.500000 0.070000 0.375000 0.000000 1.000000 0.000000 0.714844 0.781250
0.500000 0.070000 0.050000 0.000000 1.000000 0.000000 0.996094 0.570312
0.500000 0.070000 0.375000 0.000000 1.000000 0.000000 0.996094 0.781250
0.525981 0.055000 0.375000 0.866024 0.499985 0.000000 0.949219 0.781250
0.500000 0.010000 0.050000 0.000000 -1.000000 0.000000 0.855469 0.570312
0.500000 0.010000 0.375000 0.000000 -1.000000 0.000000 0.855469 0.781250
0.474019 0.025000 0.375000 -0.866024 -0.499985 0.000000 0.808594 0.781250
0.474019 0.025000 0.050000 -0.866024 -0.499985 0.000000 0.808594 0.570312
0.525981 0.055000 0.050000 0.866024 0.499985 0.000000 0.949219 0.570312
0.525981 0.025000 0.375000 0.866024 -0.499985 0.000000 0.902344 0.781250
0.525981 0.025000 0.050000 0.866024 -0.499985 0.000000 0.902344 0.570312
0.974019 0.025000 0.050000 -0.866024 -0.499985 0.000000 0.386719 0.000000
0.974019 0.025000 0.750000 -0.866024 -0.499985 0.000000 0.386719 0.500000
0.974019 0.055000 0.750000 -0.866024 0.499985 0.000000 0.339844 0.500000
1.000000 0.010000 0.050000 0.000000 -1.000000 0.000000 0.433594 0.000000
1.000000 0.010000 0.750000 0.000000 -1.000000 0.000000 0.433594 0.500000
1.025981 0.055000 0.050000 0.866024 0.499985 0.000000 0.527344 0.000000
1.025981 0.055000 0.750000 0.866024 0.499985 0.000000 0.527344 0.500000
1.025981 0.025000 0.750000 0.866024 -0.499985 0.000000 0.480469 0.500000
1.025981 0.025000 0.050000 0.866024 -0.499985 0.000000 0.480469 0.000000
0.974019 0.055000 0.050000 -0.866024 0.499985 0.000000 0.339844 0.000000
1.000000 0.070000 0.750000 0.000000 1.000000 0.000000 0.292969 0.500000
1.000000 0.070000 0.050000 0.000000 1.000000 0.000000 0.574219 0.000000
1.000000 0.070000 0.750000 0.000000 1.000000 0.000000 0.574219 0.500000
1.000000 0.906250 0.050000 0.000000 -1.000000 0.000000 0.148438 1.000000
0.125000 0.906250 0.050000 0.000000 -1.000000 0.000000 0.148438 0.578125
0.062500 0.906250 0.000000 0.000000 -1.000000 0.000000 0.117188 0.546875
0.000000 0.093750 0.000000 0.000000 0.000000 0.999969 0.593750 0.500000
1.000000 0.093750 0.000000 0.000000 0.000000 1.000000 0.593750 0.000000
1.000000 0.906250 0.000000 0.000000 0.000000 0.999969 1.000000 0.000000
1.000000 1.000000 0.050000 0.000000 1.000000 0.000000 0.195312 1.000000
1.000000 1.000000 0.000000 0.000000 1.000000 0.000000 0.226562 1.000000
0.062500 1.000000 0.000000 0.000000 1.000000 0.000000 0.226562 0.546875
0.125000 0.906250 0.050000 0.000000 0.000000 1.000000 0.148438 0.578125
1.000000 0.906250 0.050000 0.000000 0.000000 1.000000 0.148438 1.000000
1.000000 1.000000 0.050000 0.000000 0.000000 1.000000 0.195312 1.000000
1.000000 0.000000 0.050000 0.000000 -1.000000 0.000000 0.078125 1.000000
0.125000 0.000000 0.050000 0.000000 -1.000000 0.000000 0.078125 0.578125
0.062500 0.000000 0.000000 0.000000 -1.000000 0.000000 0.109375 0.546875
1.000000 0.000000 0.050000 0.000000 0.000000 1.000000 0.078125 1.000000
1.000000 0.093750 0.050000 0.000000 0.000000 1.000000 0.031250 1.000000
0.125000 0.093750 0.050000 0.000000 0.000000 1.000000 0.031250 0.578125
1.000000 0.906250 0.800000 -0.624683 0.000000 0.780847 0.359375 1.000000
1.000000 0.906250 0.800000 0.000000 -1.000000 0.000000 0.359375 1.000000
1.000000 1.000000 0.800000 0.000000 1.000000 0.000000 0.312500 1.000000
1.000000 1.000000 0.750000 0.624683 0.000000 -0.780847 0.281250 0.968750
0.500000 0.930000 0.050000 0.000000 -1.000000 0.000000 0.996094 0.789062
1.000000 0.930000 0.050000 0.000000 -1.000000 0.000000 0.285156 0.000000
1.000000 0.093750 0.800000 -0.624683 0.000000 0.780847 0.429688 1.000000
0.062500 0.093750 0.000000 0.000000 1.000000 0.000000 0.398438 0.539062
1.000000 0.000000 0.800000 0.000000 -1.000000 0.000000 0.476562 1.000000
1.000000 0.093750 0.000000 0.000000 1.000000 0.000000 0.000000 1.000000
1.000000 0.000000 0.750000 0.624683 0.000000 -0.780847 0.507812 0.968750
0.500000 0.070000 0.050000 0.000000 1.000000 0.000000 0.714844 0.570312
1.000000 0.070000 0.050000 0.000000 1.000000 0.000000 0.292969 0.000000
1.000000 0.906250 0.000000 0.000000 -1.000000 0.000000 0.117188 1.000000
0.000000 0.906250 0.000000 0.000000 0.000000 1.000000 1.000000 0.500000
0.125000 1.000000 0.050000 0.000000 1.000000 0.000000 0.195312 0.578125
0.125000 1.000000 0.050000 0.000000 0.000000 1.000000 0.195312 0.578125
1.000000 0.000000 0.000000 0.000000 -1.000000 0.000000 0.109375 1.000000
0.125000 0.000000 0.050000 0.000000 0.000000 1.000000 0.078125 0.578125
3 0 1 2
3 3 4 5
3 6 7 8
3 9 10 11
3 12 13 14
3 15 16 17
3 18 19 20
3 13 18 21
3 22 15 23
3 19 22 24
3 25 26 27
3 26 28 29
3 30 31 32
3 28 30 33
3 34 25 35
3 31 36 37
3 38 39 40
3 41 42 43
3 44 45 46
3 47 48 49
3 50 51 52
3 53 54 55
3 56 57 58
3 59 60 61
3 62 61 54
3 63 58 64
3 65 64 60
3 66 67 68
3 69 70 67
3 71 72 73
3 74 73 70
3 75 68 76
3 77 78 72
3 79 80 81
3 82 83 84
3 85 86 87
3 88 89 90
3 91 92 93
3 94 95 96
3 97 0 2
3 98 3 5
3 99 6 8
3 100 9 11
3 101 12 14
3 23 15 17
3 21 18 20
3 14 13 21
3 24 22 23
3 20 19 24
3 35 25 27
3 27 26 29
3 33 30 32
3 29 28 33
3 102 34 35
3 32 31 37
3 103 38 40
3 104 41 43
3 105 44 46
3 106 47 49
3 107 50 52
3 108 53 55
3 63 56 58
3 62 59 61
3 53 62 54
3 65 63 64
3 59 65 60
3 75 66 68
3 66 69 67
3 74 71 73
3 69 74 70
3 109 75 76
3 71 77 72
3 110 79 81
3 111 82 84
3 112 85 87
3 113 88 90
3 114 91 93
3 115 94 96
