ply
format ascii 1.0
comment Created by Blender 2.71 (sub 0) - www.blender.org
bounds 0 1 0 1 0 1
element vertex 128
property float x
property float y
property float z
property float nx
property float ny
property float nz
property float s
property float t
element face 84
property list uchar uint vertex_indices
end_header
0.474019 0.945000 0.750000 -0.866024 -0.499985 0.000000 0.333333 0.339844
0.474019 0.975000 0.750000 -0.866024 0.499985 0.000000 0.333333 0.386719
0.474019 0.975000 0.050000 -0.866024 0.499985 0.000000 0.000000 0.386719
0.500000 0.990000 0.750000 0.000000 0.999969 0.000000 0.333333 0.433594
0.500000 0.990000 0.050000 0.000000 0.999969 0.000000 0.000000 0.433594
0.525981 0.975000 0.750000 0.866024 0.499985 0.000000 0.333333 0.480469
0.525981 0.945000 0.750000 0.866024 -0.499985 0.000000 0.333333 0.527344
0.525981 0.945000 0.050000 0.866024 -0.499985 0.000000 0.000000 0.527344
0.525981 0.975000 0.050000 0.866024 0.499985 0.000000 0.000000 0.480469
0.500000 0.930000 0.750000 0.000000 -1.000000 0.000000 0.333333 0.292969
0.474019 0.945000 0.050000 -0.866024 -0.499985 0.000000 0.000000 0.339844
0.500000 0.930000 0.750000 0.000000 -1.000000 0.000000 0.333333 0.574219
0.500000 0.930000 0.050000 0.000000 -1.000000 0.000000 0.000000 0.574219
0.000000 1.000000 0.750000 0.000000 1.000000 0.000000 0.072917 1.000000
0.000000 1.000000 0.800000 0.000000 1.000000 0.000000 0.052083 1.000000
1.000000 1.000000 0.800000 0.000000 1.000000 0.000000 0.052083 0.582031
0.000000 0.906250 0.750000 0.000000 0.000000 -1.000000 0.104167 1.000000
0.000000 1.000000 0.750000 0.000000 0.000000 -1.000000 0.072917 1.000000
1.000000 1.000000 0.750000 0.000000 0.000000 -1.000000 0.072917 0.582031
0.000000 1.000000 0.050000 0.000000 0.000000 1.000000 0.273438 1.000000
0.000000 0.906250 0.050000 0.000000 0.000000 1.000000 0.304688 1.000000
1.000000 0.906250 0.050000 0.000000 0.000000 1.000000 0.304688 0.582031
0.000000 0.906250 0.800000 0.000000 -1.000000 0.000000 0.020833 1.000000
0.000000 0.906250 0.750000 0.000000 -1.000000 0.000000 0.000000 1.000000
1.000000 0.906250 0.750000 0.000000 -1.000000 0.000000 0.000000 0.582031
1.000000 0.906250 0.050000 0.000000 -1.000000 0.000000 0.304688 0.582031
0.000000 0.906250 0.050000 0.000000 -1.000000 0.000000 0.304688 1.000000
0.000000 0.906250 0.000000 0.000000 -1.000000 0.000000 0.325521 1.000000
0.000000 1.000000 0.800000 0.000000 0.000000 1.000000 0.052083 1.000000
0.000000 0.906250 0.800000 0.000000 0.000000 1.000000 0.020833 1.000000
1.000000 0.906250 0.800000 0.000000 0.000000 1.000000 0.020833 0.582031
1.000000 1.000000 0.000000 0.000000 1.000000 0.000000 0.252604 0.582031
0.000000 1.000000 0.000000 0.000000 1.000000 0.000000 0.252604 1.000000
0.000000 1.000000 0.050000 0.000000 1.000000 0.000000 0.273438 1.000000
0.974019 0.945000 0.750000 -0.866024 -0.499985 0.000000 0.552083 0.339844
0.974019 0.975000 0.750000 -0.866024 0.499985 0.000000 0.552083 0.386719
0.974019 0.975000 0.050000 -0.866024 0.499985 0.000000 0.338542 0.386719
1.000000 0.990000 0.750000 0.000000 1.000000 0.000000 0.552083 0.433594
1.000000 0.990000 0.050000 0.000000 1.000000 0.000000 0.338542 0.433594
1.025981 0.975000 0.750000 0.866024 0.499985 0.000000 0.552083 0.480469
1.025981 0.945000 0.750000 0.866024 -0.499985 0.000000 0.552083 0.527344
1.025981 0.945000 0.050000 0.866024 -0.499985 0.000000 0.338542 0.527344
1.025981 0.975000 0.050000 0.866024 0.499985 0.000000 0.338542 0.480469
1.000000 0.930000 0.750000 0.000000 -1.000000 0.000000 0.552083 0.292969
0.974019 0.945000 0.050000 -0.866024 -0.499985 0.000000 0.338542 0.339844
1.000000 0.930000 0.750000 0.000000 -1.000000 0.000000 0.552083 0.574219
1.000000 0.930000 0.050000 0.000000 -1.000000 0.000000 0.338542 0.574219
0.000000 0.093750 -0.025000 0.000000 -0.257637 -0.966216 0.437500 1.000000
1.000000 0.093750 -0.025000 0.000000 -0.257637 -0.966216 0.437500 0.582031
1.000000 0.000000 0.000000 0.000000 -0.257637 -0.966216 0.403646 0.582031
0.474019 0.025000 0.050000 -0.866024 -0.499985 0.000000 0.000000 0.191406
0.474019 0.025000 0.750000 -0.866024 -0.499985 0.000000 0.333333 0.191406
0.474019 0.055000 0.750000 -0.866024 0.499985 0.000000 0.333333 0.238281
0.500000 0.010000 0.050000 0.000000 -1.000000 0.000000 0.000000 0.144531
0.500000 0.010000 0.750000 0.000000 -1.000000 0.000000 0.333333 0.144531
0.525981 0.055000 0.050000 0.866024 0.499985 0.000000 0.000000 0.050781
0.525981 0.055000 0.750000 0.866024 0.499985 0.000000 0.333333 0.050781
0.525981 0.025000 0.750000 0.866024 -0.499985 0.000000 0.333333 0.097656
0.525981 0.025000 0.050000 0.866024 -0.499985 0.000000 0.000000 0.097656
0.474019 0.055000 0.050000 -0.866024 0.499985 0.000000 0.000000 0.238281
0.500000 0.070000 0.750000 0.000000 1.000000 0.000000 0.333333 0.285156
0.500000 0.070000 0.050000 0.000000 1.000000 0.000000 0.000000 0.003906
0.500000 0.070000 0.750000 0.000000 1.000000 0.000000 0.333333 0.003906
1.000000 0.000000 0.800000 0.000000 -1.000000 0.000000 0.161458 0.582031
0.000000 0.000000 0.800000 0.000000 -1.000000 0.000000 0.161458 1.000000
0.000000 0.000000 0.750000 0.000000 -1.000000 0.000000 0.140625 1.000000
1.000000 0.000000 0.750000 0.000000 0.000000 -1.000000 0.140625 0.582031
0.000000 0.000000 0.750000 0.000000 0.000000 -1.000000 0.140625 1.000000
0.000000 0.093750 0.750000 0.000000 0.000000 -1.000000 0.109375 1.000000
1.000000 0.093750 0.750000 0.000000 1.000000 0.000000 0.213542 0.582031
0.000000 0.093750 0.750000 0.000000 1.000000 0.000000 0.213542 1.000000
0.000000 0.093750 0.800000 0.000000 1.000000 0.000000 0.192708 1.000000
1.000000 0.093750 0.000000 0.000000 1.000000 0.000000 0.330729 0.582031
0.000000 0.093750 0.000000 0.000000 1.000000 0.000000 0.330729 1.000000
0.000000 0.093750 0.050000 0.000000 1.000000 0.000000 0.351562 1.000000
0.000000 0.093750 0.050000 0.000000 0.000000 1.000000 0.351562 1.000000
0.000000 0.000000 0.050000 0.000000 0.000000 1.000000 0.382812 1.000000
1.000000 0.000000 0.050000 0.000000 0.000000 1.000000 0.382812 0.582031
1.000000 0.093750 0.800000 0.000000 0.000000 1.000000 0.192708 0.582031
0.000000 0.093750 0.800000 0.000000 0.000000 1.000000 0.192708 1.000000
0.000000 0.000000 0.800000 0.000000 0.000000 1.000000 0.161458 1.000000
1.000000 0.000000 0.050000 0.000000 -1.000000 0.000000 0.382812 0.582031
0.000000 0.000000 0.050000 0.000000 -1.000000 0.000000 0.382812 1.000000
0.000000 0.000000 0.000000 0.000000 -1.000000 0.000000 0.403646 1.000000
0.974019 0.025000 0.050000 -0.866024 -0.499985 0.000000 0.338542 0.191406
0.974019 0.025000 0.750000 -0.866024 -0.499985 0.000000 0.552083 0.191406
0.974019 0.055000 0.750000 -0.866024 0.499985 0.000000 0.552083 0.238281
1.000000 0.010000 0.050000 0.000000 -1.000000 0.000000 0.338542 0.144531
1.000000 0.010000 0.750000 0.000000 -1.000000 0.000000 0.552083 0.144531
1.025981 0.055000 0.050000 0.866024 0.499985 0.000000 0.338542 0.050781
1.025981 0.055000 0.750000 0.866024 0.499985 0.000000 0.552083 0.050781
1.025981 0.025000 0.750000 0.866024 -0.499985 0.000000 0.552083 0.097656
1.025981 0.025000 0.050000 0.866024 -0.499985 0.000000 0.338542 0.097656
0.974019 0.055000 0.050000 -0.866024 0.499985 0.000000 0.338542 0.238281
1.000000 0.070000 0.750000 0.000000 1.000000 0.000000 0.552083 0.285156
1.000000 0.070000 0.050000 0.000000 1.000000 0.000000 0.338542 0.003906
1.000000 0.070000 0.750000 0.000000 1.000000 0.000000 0.552083 0.003906
0.000000 1.000000 0.000000 0.000000 0.257637 -0.966216 0.252604 1.000000
1.000000 1.000000 0.000000 0.000000 0.257637 -0.966216 0.252604 0.582031
1.000000 0.906250 -0.025000 0.000000 0.257637 -0.966216 0.218750 0.582031
0.000000 0.093750 0.000000 0.000000 0.000000 0.999969 0.666667 0.593750
1.000000 0.093750 0.000000 0.000000 0.000000 1.000000 1.000000 0.593750
1.000000 0.906250 0.000000 0.000000 0.000000 0.999969 1.000000 1.000000
1.000000 0.906250 -0.025000 0.000000 0.000000 -0.999969 1.000000 0.500000
1.000000 0.093750 -0.025000 0.000000 0.000000 -1.000000 0.729167 0.500000
0.000000 0.093750 -0.025000 0.000000 0.000000 -0.999969 0.729167 0.000000
0.500000 0.930000 0.050000 0.000000 -1.000000 0.000000 0.000000 0.292969
1.000000 1.000000 0.750000 0.000000 1.000000 0.000000 0.072917 0.582031
1.000000 0.906250 0.750000 0.000000 0.000000 -1.000000 0.104167 0.582031
1.000000 1.000000 0.050000 0.000000 0.000000 1.000000 0.273438 0.582031
1.000000 0.906250 0.800000 0.000000 -1.000000 0.000000 0.020833 0.582031
1.000000 0.906250 0.000000 0.000000 -1.000000 0.000000 0.325521 0.582031
1.000000 1.000000 0.800000 0.000000 0.000000 1.000000 0.052083 0.582031
1.000000 1.000000 0.050000 0.000000 1.000000 0.000000 0.273438 0.582031
1.000000 0.930000 0.050000 0.000000 -1.000000 0.000000 0.338542 0.292969
0.000000 0.000000 0.000000 0.000000 -0.257637 -0.966216 0.403646 1.000000
0.500000 0.070000 0.050000 0.000000 1.000000 0.000000 0.000000 0.285156
1.000000 0.000000 0.750000 0.000000 -1.000000 0.000000 0.140625 0.582031
1.000000 0.093750 0.750000 0.000000 0.000000 -1.000000 0.109375 0.582031
1.000000 0.093750 0.800000 0.000000 1.000000 0.000000 0.192708 0.582031
1.000000 0.093750 0.050000 0.000000 1.000000 0.000000 0.351562 0.582031
1.000000 0.093750 0.050000 0.000000 0.000000 1.000000 0.351562 0.582031
1.000000 0.000000 0.800000 0.000000 0.000000 1.000000 0.161458 0.582031
1.000000 0.000000 0.000000 0.000000 -1.000000 0.000000 0.403646 0.582031
1.000000 0.070000 0.050000 0.000000 1.000000 0.000000 0.338542 0.285156
0.000000 0.906250 -0.025000 0.000000 0.257637 -0.966216 0.218750 1.000000
0.000000 0.906250 0.000000 0.000000 0.000000 1.000000 0.666667 1.000000
0.000000 0.906250 -0.025000 0.000000 0.000000 -1.000000 1.000000 0.000000
3 0 1 2
3 1 3 4
3 5 6 7
3 3 5 8
3 9 0 10
3 6 11 12
3 13 14 15
3 16 17 18
3 19 20 21
3 22 23 24
3 25 26 27
3 28 29 30
3 31 32 33
3 34 35 36
3 35 37 38
3 39 40 41
3 37 39 42
3 43 34 44
3 40 45 46
3 47 48 49
3 50 51 52
3 53 54 51
3 55 56 57
3 58 57 54
3 59 52 60
3 61 62 56
3 63 64 65
3 66 67 68
3 69 70 71
3 72 73 74
3 75 76 77
3 78 79 80
3 81 82 83
3 84 85 86
3 87 88 85
3 89 90 91
3 92 91 88
3 93 86 94
3 95 96 90
3 97 98 99
3 100 101 102
3 103 104 105
3 10 0 2
3 2 1 4
3 8 5 7
3 4 3 8
3 106 9 10
3 7 6 12
3 107 13 15
3 108 16 18
3 109 19 21
3 110 22 24
3 111 25 27
3 112 28 30
3 113 31 33
3 44 34 36
3 36 35 38
3 42 39 41
3 38 37 42
3 114 43 44
3 41 40 46
3 115 47 49
3 59 50 52
3 50 53 51
3 58 55 57
3 53 58 54
3 116 59 60
3 55 61 56
3 117 63 65
3 118 66 68
3 119 69 71
3 120 72 74
3 121 75 77
3 122 78 80
3 123 81 83
3 93 84 86
3 84 87 85
3 92 89 91
3 87 92 88
3 124 93 94
3 89 95 90
3 125 97 99
3 126 100 102
3 127 103 105
