ply
format ascii 1.0
comment Created by Blender 2.72 (sub 0) - www.blender.org, source file: 'BridgeWest.blend'
element vertex 88
property float x
property float y
property float z
property float nx
property float ny
property float nz
property float s
property float t
element face 54
property list uchar uint vertex_indices
end_header
0.525981 0.975000 0.050000 0.866024 0.499985 0.000000 0.902344 0.789062
0.525981 0.975000 0.375000 0.866024 0.499985 0.000000 0.902344 1.000000
0.525981 0.945000 0.375000 0.866024 -0.499985 0.000000 0.949219 1.000000
0.500000 0.990000 0.050000 0.000000 1.000000 0.000000 0.855469 0.789062
0.474019 0.945000 0.050000 -0.866024 -0.499985 0.000000 0.761719 0.789062
0.474019 0.945000 0.375000 -0.866024 -0.499985 0.000000 0.761719 1.000000
0.474019 0.975000 0.375000 -0.866024 0.499985 0.000000 0.808594 1.000000
0.000000 0.906250 0.750000 0.000000 -1.000000 0.000000 0.390625 0.968750
0.937500 0.906250 0.000000 0.000000 -1.000000 0.000000 0.390625 0.539062
1.000000 0.906250 0.000000 0.000000 -1.000000 0.000000 0.359375 0.507812
0.000000 1.000000 0.050000 0.000000 0.000000 1.000000 0.195312 1.000000
0.000000 0.906250 0.050000 0.000000 0.000000 1.000000 0.148438 1.000000
0.875000 0.906250 0.050000 0.000000 0.000000 1.000000 0.148438 0.578125
0.474019 0.025000 0.375000 -0.866024 -0.499985 0.000000 0.902344 0.781250
0.474019 0.055000 0.375000 -0.866024 0.499985 0.000000 0.949219 0.781250
0.474019 0.055000 0.050000 -0.866024 0.499985 0.000000 0.949219 0.570312
0.525981 0.945000 0.050000 0.866024 -0.499985 0.000000 0.949219 0.789062
0.500000 0.930000 0.375000 0.000000 -1.000000 0.000000 0.996094 1.000000
0.937500 1.000000 0.000000 0.000000 1.000000 0.000000 0.226562 0.546875
0.000000 1.000000 0.000000 0.000000 1.000000 0.000000 0.226562 1.000000
0.000000 1.000000 0.050000 0.000000 1.000000 0.000000 0.195312 1.000000
0.937500 0.000000 0.000000 0.000000 -1.000000 0.000000 0.109375 0.546875
0.875000 0.000000 0.050000 0.000000 -1.000000 0.000000 0.078125 0.578125
0.000000 0.000000 0.050000 0.000000 -1.000000 0.000000 0.078125 1.000000
0.500000 0.070000 0.375000 0.000000 1.000000 0.000000 0.714844 0.781250
0.525981 0.055000 0.375000 0.866024 0.499985 0.000000 0.761719 0.781250
0.525981 0.055000 0.050000 0.866024 0.499985 0.000000 0.761719 0.570312
0.000000 0.906250 0.000000 0.000000 0.000000 0.999969 1.000000 0.500000
0.000000 0.093750 0.000000 0.000000 0.000000 1.000000 0.593750 0.500000
1.000000 0.093750 0.000000 0.000000 0.000000 0.999969 0.593750 0.000000
0.937500 0.906250 0.000000 0.000000 -1.000000 0.000000 0.117188 0.546875
0.875000 0.906250 0.050000 0.000000 -1.000000 0.000000 0.148438 0.578125
0.000000 0.906250 0.050000 0.000000 -1.000000 0.000000 0.148438 1.000000
0.500000 0.070000 0.375000 0.000000 1.000000 0.000000 0.996094 0.781250
0.500000 0.070000 0.050000 0.000000 0.999969 0.000000 0.996094 0.570312
1.000000 0.906250 0.000000 0.624683 0.000000 0.780847 0.359375 0.507812
1.000000 1.000000 0.000000 0.624683 0.000000 0.780847 0.312500 0.507812
0.000000 1.000000 0.800000 0.624683 0.000000 0.780847 0.312500 1.000000
0.000000 0.093750 0.750000 0.000000 1.000000 0.000000 0.398438 0.968750
0.000000 0.093750 0.800000 0.000000 1.000000 0.000000 0.429688 1.000000
1.000000 0.093750 0.000000 0.000000 1.000000 0.000000 0.429688 0.507812
0.525981 0.025000 0.375000 0.866024 -0.499985 0.000000 0.808594 0.781250
0.525981 0.025000 0.050000 0.866024 -0.499985 0.000000 0.808594 0.570312
0.875000 0.093750 0.050000 0.000000 0.000000 1.000000 0.031250 0.578125
0.000000 0.093750 0.050000 0.000000 0.000000 1.000000 0.031250 1.000000
0.000000 0.000000 0.050000 0.000000 0.000000 1.000000 0.078125 1.000000
0.000000 0.093750 0.750000 -0.624683 0.000000 -0.780847 0.554688 0.968750
0.937500 0.093750 0.000000 -0.624683 0.000000 -0.780847 0.554688 0.539062
0.937500 0.000000 0.000000 -0.624683 0.000000 -0.780847 0.507812 0.539062
0.500000 0.010000 0.375000 0.000000 -1.000000 0.000000 0.855469 0.781250
0.500000 0.010000 0.050000 0.000000 -1.000000 0.000000 0.855469 0.570312
0.500000 0.930000 0.050000 0.000000 -1.000000 0.000000 0.714844 0.789062
0.500000 0.930000 0.375000 0.000000 -1.000000 0.000000 0.714844 1.000000
0.474019 0.975000 0.050000 -0.866024 0.499985 0.000000 0.808594 0.789062
0.500000 0.990000 0.375000 0.000000 1.000000 0.000000 0.855469 1.000000
0.937500 1.000000 0.000000 -0.624683 0.000000 -0.780847 0.281250 0.539062
0.937500 0.906250 0.000000 -0.624683 0.000000 -0.780847 0.234375 0.539062
0.000000 0.906250 0.750000 -0.624683 0.000000 -0.780847 0.234375 0.968750
0.000000 0.000000 0.750000 0.000000 -1.000000 0.000000 0.507812 0.968750
0.937500 0.000000 0.000000 0.000000 -1.000000 0.000000 0.507812 0.539062
1.000000 0.000000 0.000000 0.000000 -1.000000 0.000000 0.476562 0.507812
0.000000 0.000000 0.800000 0.624683 0.000000 0.780847 0.476562 1.000000
1.000000 0.000000 0.000000 0.624683 0.000000 0.780847 0.476562 0.507812
1.000000 0.093750 0.000000 0.624683 0.000000 0.780847 0.429688 0.507812
0.474019 0.025000 0.050000 -0.866024 -0.499985 0.000000 0.902344 0.570312
0.000000 0.093750 0.050000 0.000000 1.000000 0.000000 0.031250 1.000000
0.875000 0.093750 0.050000 0.000000 1.000000 0.000000 0.031250 0.578125
0.937500 0.093750 0.000000 0.000000 1.000000 0.000000 0.000000 0.546875
1.000000 1.000000 0.000000 0.000000 1.000000 0.000000 0.312500 0.507812
0.937500 1.000000 0.000000 0.000000 1.000000 0.000000 0.281250 0.539062
0.000000 1.000000 0.750000 0.000000 1.000000 0.000000 0.281250 0.968750
0.000000 0.906250 0.800000 0.000000 -1.000000 0.000000 0.359375 1.000000
0.875000 1.000000 0.050000 0.000000 0.000000 1.000000 0.195312 0.578125
0.500000 0.930000 0.050000 0.000000 -1.000000 0.000000 0.996094 0.789062
0.875000 1.000000 0.050000 0.000000 1.000000 0.000000 0.195312 0.578125
0.000000 0.000000 0.000000 0.000000 -1.000000 0.000000 0.109375 1.000000
0.500000 0.070000 0.050000 0.000000 0.999969 0.000000 0.714844 0.570312
1.000000 0.906250 0.000000 0.000000 0.000000 1.000000 1.000000 0.000000
0.000000 0.906250 0.000000 0.000000 -1.000000 0.000000 0.117188 1.000000
0.000000 0.906250 0.800000 0.624683 0.000000 0.780847 0.359375 1.000000
0.937500 0.093750 0.000000 0.000000 1.000000 0.000000 0.398438 0.539062
0.875000 0.000000 0.050000 0.000000 0.000000 1.000000 0.078125 0.578125
0.000000 0.000000 0.750000 -0.624683 0.000000 -0.780847 0.507812 0.968750
0.000000 1.000000 0.750000 -0.624683 0.000000 -0.780847 0.281250 0.968750
0.000000 0.000000 0.800000 0.000000 -1.000000 0.000000 0.476562 1.000000
0.000000 0.093750 0.800000 0.624683 0.000000 0.780847 0.429688 1.000000
0.000000 0.093750 0.000000 0.000000 1.000000 0.000000 0.000000 1.000000
0.000000 1.000000 0.800000 0.000000 1.000000 0.000000 0.312500 1.000000
3 0 1 2
3 1 0 3
3 4 5 6
3 7 8 9
3 10 11 12
3 13 14 15
3 16 2 17
3 18 19 20
3 21 22 23
3 24 25 26
3 27 28 29
3 30 31 32
3 14 33 34
3 35 36 37
3 38 39 40
3 25 41 42
3 43 44 45
3 46 47 48
3 41 49 50
3 51 52 5
3 53 6 54
3 55 56 57
3 58 59 60
3 61 62 63
3 49 13 64
3 65 66 67
3 68 69 70
3 16 0 2
3 54 1 3
3 53 4 6
3 71 7 9
3 72 10 12
3 64 13 15
3 73 16 17
3 74 18 20
3 75 21 23
3 76 24 26
3 77 27 29
3 78 30 32
3 15 14 34
3 79 35 37
3 80 38 40
3 26 25 42
3 81 43 45
3 82 46 48
3 42 41 50
3 4 51 5
3 3 53 54
3 83 55 57
3 84 58 60
3 85 61 63
3 50 49 64
3 86 65 67
3 87 68 70
