ply
format ascii 1.0
comment Created by Blender 2.72 (sub 0) - www.blender.org, source file: 'BridgeEast.blend'
element vertex 116
property float x
property float y
property float z
property float nx
property float ny
property float nz
property float s
property float t
element face 78
property list uchar uint vertex_indices
end_header
1.000000 1.000000 0.800000 -0.624683 0.000000 0.780847 0.312500 1.000000
0.000000 1.000000 0.000000 -0.624683 0.000000 0.780847 0.312500 0.507812
0.000000 0.906250 0.000000 -0.624683 0.000000 0.780847 0.359375 0.507812
0.000000 0.906250 0.000000 0.000000 -1.000000 0.000000 0.359375 0.507812
0.062500 0.906250 0.000000 0.000000 -1.000000 0.000000 0.390625 0.539062
1.000000 0.906250 0.750000 0.000000 -1.000000 0.000000 0.390625 0.968750
1.000000 1.000000 0.750000 0.000000 1.000000 0.000000 0.281250 0.968750
0.062500 1.000000 0.000000 0.000000 1.000000 0.000000 0.281250 0.539062
0.000000 1.000000 0.000000 0.000000 1.000000 0.000000 0.312500 0.507812
1.000000 0.906250 0.750000 0.624683 0.000000 -0.780847 0.234375 0.968750
0.062500 0.906250 0.000000 0.624683 0.000000 -0.780847 0.234375 0.539062
0.062500 1.000000 0.000000 0.624683 0.000000 -0.780847 0.281250 0.539062
0.500000 0.930000 0.375000 0.000000 -1.000000 0.000000 0.996094 1.000000
0.474019 0.945000 0.375000 -0.866024 -0.499985 0.000000 0.949219 1.000000
0.474019 0.945000 0.050000 -0.866024 -0.499985 0.000000 0.949219 0.789062
0.525981 0.945000 0.375000 0.866024 -0.499985 0.000000 0.761719 1.000000
0.500000 0.930000 0.375000 0.000000 -1.000000 0.000000 0.714844 1.000000
0.500000 0.930000 0.050000 0.000000 -1.000000 0.000000 0.714844 0.789062
0.500000 0.990000 0.050000 0.000000 1.000000 0.000000 0.855469 0.789062
0.474019 0.975000 0.050000 -0.866024 0.499985 0.000000 0.902344 0.789062
0.474019 0.975000 0.375000 -0.866024 0.499985 0.000000 0.902344 1.000000
0.525981 0.975000 0.375000 0.866024 0.499985 0.000000 0.808594 1.000000
0.525981 0.945000 0.050000 0.866024 -0.499985 0.000000 0.761719 0.789062
0.500000 0.990000 0.375000 0.000000 1.000000 0.000000 0.855469 1.000000
0.525981 0.975000 0.050000 0.866024 0.499985 0.000000 0.808594 0.789062
0.974019 0.945000 0.750000 -0.866024 -0.499985 0.000000 0.238281 0.500000
0.974019 0.975000 0.750000 -0.866024 0.499985 0.000000 0.191406 0.500000
0.974019 0.975000 0.050000 -0.866024 0.499985 0.000000 0.191406 0.000000
1.000000 0.990000 0.750000 0.000000 1.000000 0.000000 0.144531 0.500000
1.000000 0.990000 0.050000 0.000000 1.000000 0.000000 0.144531 0.000000
1.025981 0.975000 0.750000 0.866024 0.499985 0.000000 0.097656 0.500000
1.025981 0.945000 0.750000 0.866024 -0.499985 0.000000 0.050781 0.500000
1.025981 0.945000 0.050000 0.866024 -0.499985 0.000000 0.050781 0.000000
1.000000 0.930000 0.750000 0.000000 -1.000000 0.000000 0.285156 0.500000
0.974019 0.945000 0.050000 -0.866024 -0.499985 0.000000 0.238281 0.000000
1.000000 0.930000 0.750000 0.000000 -1.000000 0.000000 0.003906 0.500000
1.000000 0.930000 0.050000 0.000000 -1.000000 0.000000 0.003906 0.000000
0.000000 0.093750 0.000000 -0.624683 0.000000 0.780847 0.429688 0.507812
0.000000 0.000000 0.000000 -0.624683 0.000000 0.780847 0.476562 0.507812
1.000000 0.000000 0.800000 -0.624683 0.000000 0.780847 0.476562 1.000000
0.000000 0.093750 0.000000 0.000000 1.000000 0.000000 0.429688 0.507812
1.000000 0.093750 0.800000 0.000000 1.000000 0.000000 0.429688 1.000000
1.000000 0.093750 0.750000 0.000000 1.000000 0.000000 0.398438 0.968750
0.000000 0.000000 0.000000 0.000000 -1.000000 0.000000 0.476562 0.507812
0.062500 0.000000 0.000000 0.000000 -1.000000 0.000000 0.507812 0.539062
1.000000 0.000000 0.750000 0.000000 -1.000000 0.000000 0.507812 0.968750
0.062500 0.093750 0.000000 0.000000 1.000000 0.000000 0.000000 0.546875
0.125000 0.093750 0.050000 0.000000 1.000000 0.000000 0.031250 0.578125
1.000000 0.093750 0.050000 0.000000 1.000000 0.000000 0.031250 1.000000
0.062500 0.000000 0.000000 0.624683 0.000000 -0.780847 0.507812 0.539062
0.062500 0.093750 0.000000 0.624683 0.000000 -0.780847 0.554688 0.539062
1.000000 0.093750 0.750000 0.624683 0.000000 -0.780847 0.554688 0.968750
0.474019 0.055000 0.050000 -0.866024 0.499985 0.000000 0.761719 0.570312
0.474019 0.055000 0.375000 -0.866024 0.499985 0.000000 0.761719 0.781250
0.500000 0.070000 0.375000 0.000000 1.000000 0.000000 0.714844 0.781250
0.500000 0.070000 0.050000 0.000000 1.000000 0.000000 0.996094 0.570312
0.500000 0.070000 0.375000 0.000000 1.000000 0.000000 0.996094 0.781250
0.525981 0.055000 0.375000 0.866024 0.499985 0.000000 0.949219 0.781250
0.500000 0.010000 0.050000 0.000000 -0.999969 0.000000 0.855469 0.570312
0.500000 0.010000 0.375000 0.000000 -1.000000 0.000000 0.855469 0.781250
0.474019 0.025000 0.375000 -0.866024 -0.499985 0.000000 0.808594 0.781250
0.474019 0.025000 0.050000 -0.866024 -0.499985 0.000000 0.808594 0.570312
0.525981 0.055000 0.050000 0.866024 0.499985 0.000000 0.949219 0.570312
0.525981 0.025000 0.375000 0.866024 -0.499985 0.000000 0.902344 0.781250
0.525981 0.025000 0.050000 0.866024 -0.499985 0.000000 0.902344 0.570312
0.974019 0.025000 0.050000 -0.866024 -0.499985 0.000000 0.386719 0.000000
0.974019 0.025000 0.750000 -0.866024 -0.499985 0.000000 0.386719 0.500000
0.974019 0.055000 0.750000 -0.866024 0.499985 0.000000 0.339844 0.500000
1.000000 0.010000 0.050000 0.000000 -1.000000 0.000000 0.433594 0.000000
1.000000 0.010000 0.750000 0.000000 -1.000000 0.000000 0.433594 0.500000
1.025981 0.055000 0.050000 0.866024 0.499985 0.000000 0.527344 0.000000
1.025981 0.055000 0.750000 0.866024 0.499985 0.000000 0.527344 0.500000
1.025981 0.025000 0.750000 0.866024 -0.499985 0.000000 0.480469 0.500000
1.025981 0.025000 0.050000 0.866024 -0.499985 0.000000 0.480469 0.000000
0.974019 0.055000 0.050000 -0.866024 0.499985 0.000000 0.339844 0.000000
1.000000 0.070000 0.750000 0.000000 1.000000 0.000000 0.292969 0.500000
1.000000 0.070000 0.050000 0.000000 1.000000 0.000000 0.574219 0.000000
1.000000 0.070000 0.750000 0.000000 1.000000 0.000000 0.574219 0.500000
1.000000 0.906250 0.050000 0.000000 -1.000000 0.000000 0.148438 1.000000
0.125000 0.906250 0.050000 0.000000 -1.000000 0.000000 0.148438 0.578125
0.062500 0.906250 0.000000 0.000000 -1.000000 0.000000 0.117188 0.546875
0.000000 0.093750 0.000000 0.000000 0.000000 0.999969 0.593750 0.500000
1.000000 0.093750 0.000000 0.000000 0.000000 1.000000 0.593750 0.000000
1.000000 0.906250 0.000000 0.000000 0.000000 0.999969 1.000000 0.000000
1.000000 1.000000 0.050000 0.000000 1.000000 0.000000 0.195312 1.000000
1.000000 1.000000 0.000000 0.000000 1.000000 0.000000 0.226562 1.000000
0.062500 1.000000 0.000000 0.000000 1.000000 0.000000 0.226562 0.546875
0.125000 0.906250 0.050000 0.000000 0.000000 1.000000 0.148438 0.578125
1.000000 0.906250 0.050000 0.000000 0.000000 1.000000 0.148438 1.000000
1.000000 1.000000 0.050000 0.000000 0.000000 1.000000 0.195312 1.000000
1.000000 0.000000 0.050000 0.000000 -1.000000 0.000000 0.078125 1.000000
0.125000 0.000000 0.050000 0.000000 -1.000000 0.000000 0.078125 0.578125
0.062500 0.000000 0.000000 0.000000 -1.000000 0.000000 0.109375 0.546875
1.000000 0.000000 0.050000 0.000000 0.000000 1.000000 0.078125 1.000000
1.000000 0.093750 0.050000 0.000000 0.000000 1.000000 0.031250 1.000000
0.125000 0.093750 0.050000 0.000000 0.000000 1.000000 0.031250 0.578125
1.000000 0.906250 0.800000 -0.624683 0.000000 0.780847 0.359375 1.000000
1.000000 0.906250 0.800000 0.000000 -1.000000 0.000000 0.359375 1.000000
1.000000 1.000000 0.800000 0.000000 1.000000 0.000000 0.312500 1.000000
1.000000 1.000000 0.750000 0.624683 0.000000 -0.780847 0.281250 0.968750
0.500000 0.930000 0.050000 0.000000 -1.000000 0.000000 0.996094 0.789062
1.025981 0.975000 0.050000 0.866024 0.499985 0.000000 0.097656 0.000000
1.000000 0.930000 0.050000 0.000000 -1.000000 0.000000 0.285156 0.000000
1.000000 0.093750 0.800000 -0.624683 0.000000 0.780847 0.429688 1.000000
0.062500 0.093750 0.000000 0.000000 1.000000 0.000000 0.398438 0.539062
1.000000 0.000000 0.800000 0.000000 -1.000000 0.000000 0.476562 1.000000
1.000000 0.093750 0.000000 0.000000 1.000000 0.000000 0.000000 1.000000
1.000000 0.000000 0.750000 0.624683 0.000000 -0.780847 0.507812 0.968750
0.500000 0.070000 0.050000 0.000000 1.000000 0.000000 0.714844 0.570312
1.000000 0.070000 0.050000 0.000000 1.000000 0.000000 0.292969 0.000000
1.000000 0.906250 0.000000 0.000000 -1.000000 0.000000 0.117188 1.000000
0.000000 0.906250 0.000000 0.000000 0.000000 1.000000 1.000000 0.500000
0.125000 1.000000 0.050000 0.000000 1.000000 0.000000 0.195312 0.578125
0.125000 1.000000 0.050000 0.000000 0.000000 1.000000 0.195312 0.578125
1.000000 0.000000 0.000000 0.000000 -1.000000 0.000000 0.109375 1.000000
0.125000 0.000000 0.050000 0.000000 0.000000 1.000000 0.078125 0.578125
3 0 1 2
3 3 4 5
3 6 7 8
3 9 10 11
3 12 13 14
3 15 16 17
3 18 19 20
3 13 20 19
3 21 15 22
3 23 21 24
3 25 26 27
3 26 28 29
3 30 31 32
3 29 28 30
3 33 25 34
3 31 35 36
3 37 38 39
3 40 41 42
3 43 44 45
3 46 47 48
3 49 50 51
3 52 53 54
3 55 56 57
3 58 59 60
3 61 60 53
3 62 57 63
3 64 63 59
3 65 66 67
3 68 69 66
3 70 71 72
3 73 72 69
3 74 67 75
3 76 77 71
3 78 79 80
3 81 82 83
3 84 85 86
3 87 88 89
3 90 91 92
3 93 94 95
3 96 0 2
3 97 3 5
3 98 6 8
3 99 9 11
3 100 12 14
3 22 15 17
3 23 18 20
3 14 13 19
3 24 21 22
3 18 23 24
3 34 25 27
3 27 26 29
3 101 30 32
3 101 29 30
3 102 33 34
3 32 31 36
3 103 37 39
3 104 40 42
3 105 43 45
3 106 46 48
3 107 49 51
3 108 52 54
3 62 55 57
3 61 58 60
3 52 61 53
3 64 62 63
3 58 64 59
3 74 65 67
3 65 68 66
3 73 70 72
3 68 73 69
3 109 74 75
3 70 76 71
3 110 78 80
3 111 81 83
3 112 84 86
3 113 87 89
3 114 90 92
3 115 93 95
