ply
format ascii 1.0
comment Created by Blender 2.72 (sub 0) - www.blender.org, source file: 'Bridge.blend'
element vertex 128
property float x
property float y
property float z
property float nx
property float ny
property float nz
property float s
property float t
element face 84
property list uchar uint vertex_indices
end_header
0.474019 0.945000 0.750000 -0.866024 -0.499985 0.000000 0.333333 0.339844
0.474019 0.975000 0.750000 -0.866024 0.499985 0.000000 0.333333 0.386719
0.474019 0.975000 0.050000 -0.866024 0.499985 0.000000 0.000000 0.386719
0.500000 0.990000 0.050000 0.000000 1.000000 0.000000 0.000000 0.433594
0.525981 0.975000 0.750000 0.866024 0.499985 0.000000 0.333333 0.480469
0.525981 0.945000 0.750000 0.866024 -0.499985 0.000000 0.333333 0.527344
0.525981 0.945000 0.050000 0.866024 -0.499985 0.000000 0.000000 0.527344
0.500000 0.990000 0.750000 0.000000 1.000000 0.000000 0.333333 0.433594
0.525981 0.975000 0.050000 0.866024 0.499985 0.000000 0.000000 0.480469
0.474019 0.945000 0.050000 -0.866024 -0.499985 0.000000 0.000000 0.339844
0.500000 0.930000 0.050000 0.000000 -1.000000 0.000000 0.000000 0.292969
0.500000 0.930000 0.750000 0.000000 -1.000000 0.000000 0.333333 0.292969
0.500000 0.930000 0.750000 0.000000 -1.000000 0.000000 0.333333 0.574219
0.500000 0.930000 0.050000 0.000000 -1.000000 0.000000 0.000000 0.574219
0.000000 1.000000 0.750000 0.000000 1.000000 0.000000 0.072917 1.000000
0.000000 1.000000 0.800000 0.000000 1.000000 0.000000 0.052083 1.000000
1.000000 1.000000 0.800000 0.000000 1.000000 0.000000 0.052083 0.582031
0.000000 0.906250 0.750000 0.000000 0.000000 -1.000000 0.104167 1.000000
0.000000 1.000000 0.750000 0.000000 0.000000 -1.000000 0.072917 1.000000
1.000000 1.000000 0.750000 0.000000 0.000000 -1.000000 0.072917 0.582031
0.000000 1.000000 0.050000 0.000000 0.000000 1.000000 0.273438 1.000000
0.000000 0.906250 0.050000 0.000000 0.000000 1.000000 0.304688 1.000000
1.000000 0.906250 0.050000 0.000000 0.000000 1.000000 0.304688 0.582031
0.000000 0.906250 0.800000 0.000000 -1.000000 0.000000 0.020833 1.000000
0.000000 0.906250 0.750000 0.000000 -1.000000 0.000000 0.000000 1.000000
1.000000 0.906250 0.750000 0.000000 -1.000000 0.000000 0.000000 0.582031
1.000000 0.906250 0.050000 0.000000 -1.000000 0.000000 0.304688 0.582031
0.000000 0.906250 0.050000 0.000000 -1.000000 0.000000 0.304688 1.000000
0.000000 0.906250 0.000000 0.000000 -1.000000 0.000000 0.325521 1.000000
0.000000 1.000000 0.800000 0.000000 0.000000 1.000000 0.052083 1.000000
0.000000 0.906250 0.800000 0.000000 0.000000 1.000000 0.020833 1.000000
1.000000 0.906250 0.800000 0.000000 0.000000 1.000000 0.020833 0.582031
1.000000 1.000000 0.000000 0.000000 1.000000 0.000000 0.252604 0.582031
0.000000 1.000000 0.000000 0.000000 1.000000 0.000000 0.252604 1.000000
0.000000 1.000000 0.050000 0.000000 1.000000 0.000000 0.273438 1.000000
0.974019 0.945000 0.750000 -0.866024 -0.499985 0.000000 0.552083 0.339844
0.974019 0.975000 0.750000 -0.866024 0.499985 0.000000 0.552083 0.386719
0.974019 0.975000 0.050000 -0.866024 0.499985 0.000000 0.338542 0.386719
1.000000 0.990000 0.750000 0.000000 1.000000 0.000000 0.552083 0.433594
1.000000 0.990000 0.050000 0.000000 1.000000 0.000000 0.338542 0.433594
1.025981 0.975000 0.750000 0.866024 0.499985 0.000000 0.552083 0.480469
1.025981 0.945000 0.750000 0.866024 -0.499985 0.000000 0.552083 0.527344
1.025981 0.945000 0.050000 0.866024 -0.499985 0.000000 0.338542 0.527344
1.000000 0.930000 0.750000 0.000000 -1.000000 0.000000 0.552083 0.292969
0.974019 0.945000 0.050000 -0.866024 -0.499985 0.000000 0.338542 0.339844
0.000000 0.093750 -0.025000 0.000000 -0.257637 -0.966216 0.437500 1.000000
1.000000 0.093750 -0.025000 0.000000 -0.257637 -0.966216 0.437500 0.582031
1.000000 0.000000 0.000000 0.000000 -0.257637 -0.966216 0.403646 0.582031
0.474019 0.025000 0.050000 -0.866024 -0.499985 0.000000 0.000000 0.191406
0.474019 0.025000 0.750000 -0.866024 -0.499985 0.000000 0.333333 0.191406
0.474019 0.055000 0.750000 -0.866024 0.499985 0.000000 0.333333 0.238281
0.500000 0.010000 0.050000 0.000000 -0.999969 0.000000 0.000000 0.144531
0.500000 0.010000 0.750000 0.000000 -0.999969 0.000000 0.333333 0.144531
0.525981 0.055000 0.050000 0.866024 0.499985 0.000000 0.000000 0.050781
0.525981 0.055000 0.750000 0.866024 0.499985 0.000000 0.333333 0.050781
0.525981 0.025000 0.750000 0.866024 -0.499985 0.000000 0.333333 0.097656
0.525981 0.025000 0.050000 0.866024 -0.499985 0.000000 0.000000 0.097656
0.474019 0.055000 0.050000 -0.866024 0.499985 0.000000 0.000000 0.238281
0.500000 0.070000 0.750000 0.000000 0.999969 0.000000 0.333333 0.285156
0.500000 0.070000 0.050000 0.000000 0.999969 0.000000 0.000000 0.003906
0.500000 0.070000 0.750000 0.000000 0.999969 0.000000 0.333333 0.003906
1.000000 0.000000 0.800000 0.000000 -1.000000 0.000000 0.161458 0.582031
0.000000 0.000000 0.800000 0.000000 -1.000000 0.000000 0.161458 1.000000
0.000000 0.000000 0.750000 0.000000 -1.000000 0.000000 0.140625 1.000000
1.000000 0.000000 0.750000 0.000000 0.000000 -1.000000 0.140625 0.582031
0.000000 0.000000 0.750000 0.000000 0.000000 -1.000000 0.140625 1.000000
0.000000 0.093750 0.750000 0.000000 0.000000 -1.000000 0.109375 1.000000
1.000000 0.093750 0.750000 0.000000 1.000000 0.000000 0.213542 0.582031
0.000000 0.093750 0.750000 0.000000 1.000000 0.000000 0.213542 1.000000
0.000000 0.093750 0.800000 0.000000 1.000000 0.000000 0.192708 1.000000
1.000000 0.093750 0.000000 0.000000 1.000000 0.000000 0.330729 0.582031
0.000000 0.093750 0.000000 0.000000 1.000000 0.000000 0.330729 1.000000
0.000000 0.093750 0.050000 0.000000 1.000000 0.000000 0.351562 1.000000
0.000000 0.093750 0.050000 0.000000 0.000000 1.000000 0.351562 1.000000
0.000000 0.000000 0.050000 0.000000 0.000000 1.000000 0.382812 1.000000
1.000000 0.000000 0.050000 0.000000 0.000000 1.000000 0.382812 0.582031
1.000000 0.093750 0.800000 0.000000 0.000000 1.000000 0.192708 0.582031
0.000000 0.093750 0.800000 0.000000 0.000000 1.000000 0.192708 1.000000
0.000000 0.000000 0.800000 0.000000 0.000000 1.000000 0.161458 1.000000
1.000000 0.000000 0.050000 0.000000 -1.000000 0.000000 0.382812 0.582031
0.000000 0.000000 0.050000 0.000000 -1.000000 0.000000 0.382812 1.000000
0.000000 0.000000 0.000000 0.000000 -1.000000 0.000000 0.403646 1.000000
0.974019 0.025000 0.050000 -0.866024 -0.499985 0.000000 0.338542 0.191406
0.974019 0.025000 0.750000 -0.866024 -0.499985 0.000000 0.552083 0.191406
0.974019 0.055000 0.750000 -0.866024 0.499985 0.000000 0.552083 0.238281
1.000000 0.010000 0.050000 0.000000 -1.000000 0.000000 0.338542 0.144531
1.000000 0.010000 0.750000 0.000000 -1.000000 0.000000 0.552083 0.144531
1.025981 0.055000 0.050000 0.866024 0.499985 0.000000 0.338542 0.050781
1.025981 0.055000 0.750000 0.866024 0.499985 0.000000 0.552083 0.050781
1.025981 0.025000 0.750000 0.866024 -0.499985 0.000000 0.552083 0.097656
1.025981 0.025000 0.050000 0.866024 -0.499985 0.000000 0.338542 0.097656
0.974019 0.055000 0.050000 -0.866024 0.499985 0.000000 0.338542 0.238281
1.000000 0.070000 0.750000 0.000000 1.000000 0.000000 0.552083 0.285156
1.000000 0.070000 0.050000 0.000000 1.000000 0.000000 0.338542 0.003906
1.000000 0.070000 0.750000 0.000000 1.000000 0.000000 0.552083 0.003906
0.000000 1.000000 0.000000 0.000000 0.257637 -0.966216 0.252604 1.000000
1.000000 1.000000 0.000000 0.000000 0.257637 -0.966216 0.252604 0.582031
1.000000 0.906250 -0.025000 0.000000 0.257637 -0.966216 0.218750 0.582031
0.000000 0.093750 0.000000 0.000000 0.000000 0.999969 0.666667 0.593750
1.000000 0.093750 0.000000 0.000000 0.000000 1.000000 1.000000 0.593750
1.000000 0.906250 0.000000 0.000000 0.000000 0.999969 1.000000 1.000000
1.000000 0.906250 -0.025000 0.000000 0.000000 -0.999969 1.000000 0.500000
1.000000 0.093750 -0.025000 0.000000 0.000000 -1.000000 0.729167 0.500000
0.000000 0.093750 -0.025000 0.000000 0.000000 -0.999969 0.729167 0.000000
1.000000 0.930000 0.750000 0.000000 -1.000000 0.000000 0.552083 0.574219
1.000000 0.930000 0.050000 0.499985 -0.866024 0.000000 0.338542 0.574219
1.000000 1.000000 0.750000 0.000000 1.000000 0.000000 0.072917 0.582031
1.000000 0.906250 0.750000 0.000000 0.000000 -1.000000 0.104167 0.582031
1.000000 1.000000 0.050000 0.000000 0.000000 1.000000 0.273438 0.582031
1.000000 0.906250 0.800000 0.000000 -1.000000 0.000000 0.020833 0.582031
1.000000 0.906250 0.000000 0.000000 -1.000000 0.000000 0.325521 0.582031
1.000000 1.000000 0.800000 0.000000 0.000000 1.000000 0.052083 0.582031
1.000000 1.000000 0.050000 0.000000 1.000000 0.000000 0.273438 0.582031
1.025981 0.975000 0.050000 0.866024 0.499985 0.000000 0.338542 0.480469
1.000000 0.930000 0.050000 -0.499985 -0.866024 0.000000 0.338542 0.292969
0.000000 0.000000 0.000000 0.000000 -0.257637 -0.966216 0.403646 1.000000
0.500000 0.070000 0.050000 0.000000 0.999969 0.000000 0.000000 0.285156
1.000000 0.000000 0.750000 0.000000 -1.000000 0.000000 0.140625 0.582031
1.000000 0.093750 0.750000 0.000000 0.000000 -1.000000 0.109375 0.582031
1.000000 0.093750 0.800000 0.000000 1.000000 0.000000 0.192708 0.582031
1.000000 0.093750 0.050000 0.000000 1.000000 0.000000 0.351562 0.582031
1.000000 0.093750 0.050000 0.000000 0.000000 1.000000 0.351562 0.582031
1.000000 0.000000 0.800000 0.000000 0.000000 1.000000 0.161458 0.582031
1.000000 0.000000 0.000000 0.000000 -1.000000 0.000000 0.403646 0.582031
1.000000 0.070000 0.050000 0.000000 1.000000 0.000000 0.338542 0.285156
0.000000 0.906250 -0.025000 0.000000 0.257637 -0.966216 0.218750 1.000000
0.000000 0.906250 0.000000 0.000000 0.000000 1.000000 0.666667 1.000000
0.000000 0.906250 -0.025000 0.000000 0.000000 -1.000000 1.000000 0.000000
3 0 1 2
3 3 2 1
3 4 5 6
3 7 4 8
3 9 10 11
3 5 12 13
3 14 15 16
3 17 18 19
3 20 21 22
3 23 24 25
3 26 27 28
3 29 30 31
3 32 33 34
3 35 36 37
3 36 38 39
3 40 41 42
3 39 38 40
3 43 35 44
3 45 46 47
3 48 49 50
3 51 52 49
3 53 54 55
3 56 55 52
3 57 50 58
3 59 60 54
3 61 62 63
3 64 65 66
3 67 68 69
3 70 71 72
3 73 74 75
3 76 77 78
3 79 80 81
3 82 83 84
3 85 86 83
3 87 88 89
3 90 89 86
3 91 84 92
3 93 94 88
3 95 96 97
3 98 99 100
3 101 102 103
3 41 104 105
3 9 0 2
3 7 3 1
3 8 4 6
3 3 7 8
3 0 9 11
3 6 5 13
3 106 14 16
3 107 17 19
3 108 20 22
3 109 23 25
3 110 26 28
3 111 29 31
3 112 32 34
3 44 35 37
3 37 36 39
3 113 40 42
3 113 39 40
3 114 43 44
3 115 45 47
3 57 48 50
3 48 51 49
3 56 53 55
3 51 56 52
3 116 57 58
3 53 59 54
3 117 61 63
3 118 64 66
3 119 67 69
3 120 70 72
3 121 73 75
3 122 76 78
3 123 79 81
3 91 82 84
3 82 85 83
3 90 87 89
3 85 90 86
3 124 91 92
3 87 93 88
3 125 95 97
3 126 98 100
3 127 101 103
3 42 41 105
