ply
format ascii 1.0
comment Created by Blender 2.71 (sub 0) - www.blender.org
bounds 0 1 0.75 1 0 3
element vertex 40
property float x
property float y
property float z
property float nx
property float ny
property float nz
property float s
property float t
element face 28
property list uchar uint vertex_indices
end_header
0.828183 0.937349 0.000000 0.974914 0.222510 0.000000 0.992188 0.402344
0.828183 0.937349 2.750000 0.974914 0.222510 0.000000 0.992188 1.000000
0.847493 0.852747 2.750000 0.974914 -0.222510 0.000000 0.898438 1.000000
0.793388 0.784903 2.750000 0.433851 -0.900967 0.000000 0.804688 1.000000
0.793388 0.784903 0.000000 0.433851 -0.900967 0.000000 0.804688 0.402344
0.706612 0.784903 2.750000 -0.433851 -0.900967 0.000000 0.710938 1.000000
0.706612 0.784903 0.000000 -0.433851 -0.900967 0.000000 0.710938 0.402344
0.652507 0.852747 2.750000 -0.974914 -0.222510 0.000000 0.617188 1.000000
0.652507 0.852747 0.000000 -0.974914 -0.222510 0.000000 0.617188 0.402344
0.671817 0.937349 2.750000 -0.974914 0.222510 0.000000 0.523438 1.000000
1.000000 1.000000 3.000000 0.000000 0.000000 0.999969 0.000000 0.390625
0.000000 1.000000 3.000000 0.000000 0.000000 1.000000 1.000000 0.390625
0.000000 0.750000 3.000000 0.000000 0.000000 1.000000 1.000000 0.292969
1.000000 0.750000 3.000000 0.000000 -1.000000 0.000000 0.000000 0.292969
0.000000 0.750000 3.000000 0.000000 -1.000000 0.000000 1.000000 0.292969
0.000000 0.750000 2.750000 0.000000 -1.000000 0.000000 1.000000 0.195312
1.000000 0.750000 2.750000 0.000000 0.000000 -0.999969 0.000000 0.195312
0.000000 0.750000 2.750000 0.000000 0.000000 -0.999969 1.000000 0.195312
0.000000 1.000000 2.750000 0.000000 0.000000 -1.000000 1.000000 0.097656
0.000000 0.750000 0.000000 0.000000 0.000000 1.000000 0.000000 0.000000
1.000000 0.750000 0.000000 0.000000 0.000000 1.000000 1.000000 0.000000
1.000000 1.000000 0.000000 0.000000 0.000000 1.000000 1.000000 0.097656
0.328183 0.937349 0.000000 0.974914 0.222510 0.000000 0.476562 0.402344
0.328183 0.937349 2.750000 0.974914 0.222510 0.000000 0.476562 1.000000
0.347493 0.852747 2.750000 0.974914 -0.222510 0.000000 0.382812 1.000000
0.293388 0.784903 2.750000 0.433851 -0.900967 0.000000 0.289062 1.000000
0.293388 0.784903 0.000000 0.433851 -0.900967 0.000000 0.289062 0.402344
0.206612 0.784903 2.750000 -0.433851 -0.900967 0.000000 0.195312 1.000000
0.206612 0.784903 0.000000 -0.433851 -0.900967 0.000000 0.195312 0.402344
0.152507 0.852747 2.750000 -0.974914 -0.222510 0.000000 0.101562 1.000000
0.152507 0.852747 0.000000 -0.974914 -0.222510 0.000000 0.101562 0.402344
0.171817 0.937349 2.750000 -0.974914 0.222510 0.000000 0.007812 1.000000
0.847493 0.852747 0.000000 0.974914 -0.222510 0.000000 0.898438 0.402344
0.671817 0.937349 0.000000 -0.974914 0.222510 0.000000 0.523438 0.402344
1.000000 0.750000 3.000000 0.000000 0.000000 1.000000 0.000000 0.292969
1.000000 0.750000 2.750000 0.000000 -1.000000 0.000000 0.000000 0.195312
1.000000 1.000000 2.750000 0.000000 0.000000 -1.000000 0.000000 0.097656
0.000000 1.000000 0.000000 0.000000 0.000000 1.000000 0.000000 0.097656
0.347493 0.852747 0.000000 0.974914 -0.222510 0.000000 0.382812 0.402344
0.171817 0.937349 0.000000 -0.974914 0.222510 0.000000 0.007812 0.402344
3 0 1 2
3 2 3 4
3 3 5 6
3 5 7 8
3 8 7 9
3 10 11 12
3 13 14 15
3 16 17 18
3 19 20 21
3 22 23 24
3 24 25 26
3 25 27 28
3 27 29 30
3 30 29 31
3 32 0 2
3 32 2 4
3 4 3 6
3 6 5 8
3 33 8 9
3 34 10 12
3 35 13 15
3 36 16 18
3 37 19 21
3 38 22 24
3 38 24 26
3 26 25 28
3 28 27 30
3 39 30 31
