ply
format ascii 1.0
comment Created by Blender 2.71 (sub 0) - www.blender.org
bounds 0 1 0 1 0 0
element vertex 10
property float x
property float y
property float z
property float nx
property float ny
property float nz
property float s
property float t
element face 4
property list uchar uint vertex_indices
end_header
0.000000 0.000000 0.000000 0.000000 0.000000 1.000000 0.000000 0.000000
1.000000 0.000000 0.000000 0.000000 0.000000 1.000000 1.000000 0.000000
1.000000 1.000000 0.000000 0.000000 0.000000 1.000000 1.000000 1.000000
0.000000 1.000000 0.000000 0.000000 -0.000000 1.000000 0.000000 1.000000
0.000000 1.000000 0.000000 0.000000 0.000000 -1.000000 0.000000 1.000000
1.000000 1.000000 0.000000 0.000000 0.000000 -1.000000 1.000000 1.000000
0.000000 0.000000 0.000000 0.000000 0.000000 -1.000000 0.000000 0.000000
0.000000 0.000000 0.000000 -0.000000 0.000000 -1.000000 0.000000 0.000000
1.000000 1.000000 0.000000 -0.000000 0.000000 -1.000000 1.000000 1.000000
1.000000 0.000000 0.000000 -0.000000 0.000000 -1.000000 1.000000 0.000000
3 0 1 2
3 3 0 2
3 4 5 6
3 7 8 9
