ply
format ascii 1.0
comment Created by Blender 2.71 (sub 0) - www.blender.org
element vertex 88
property float x
property float y
property float z
property float nx
property float ny
property float nz
property float s
property float t
element face 54
property list uchar uint vertex_indices
end_header
0.525981 0.975000 0.050000 0.866024 0.499985 0.000000 0.902344 0.789062
0.525981 0.975000 0.375000 0.866024 0.499985 0.000000 0.902344 1.000000
0.525981 0.945000 0.375000 0.866024 -0.499985 0.000000 0.949219 1.000000
0.500000 0.990000 0.050000 0.000000 1.000000 0.000000 0.855469 0.789062
0.474019 0.945000 0.050000 -0.866024 -0.499985 0.000000 0.761719 0.789062
0.474019 0.945000 0.375000 -0.866024 -0.499985 0.000000 0.761719 1.000000
0.474019 0.975000 0.375000 -0.866024 0.499985 0.000000 0.808594 1.000000
0.000000 0.906250 0.750000 0.000000 -1.000000 0.000000 0.390625 0.968750
0.937500 0.906250 0.000000 0.000000 -1.000000 0.000000 0.390625 0.539062
1.000000 0.906250 0.000000 0.000000 -1.000000 0.000000 0.359375 0.507812
0.000000 1.000000 0.050000 0.000000 0.000000 1.000000 0.195312 1.000000
0.000000 0.906250 0.050000 0.000000 0.000000 1.000000 0.148438 1.000000
0.875000 0.906250 0.050000 0.000000 0.000000 1.000000 0.148438 0.578125
0.474019 0.025000 0.375000 -0.866024 -0.499985 0.000000 0.902344 0.781250
0.474019 0.055000 0.375000 -0.866024 0.499985 0.000000 0.949219 0.781250
0.474019 0.055000 0.050000 -0.866024 0.499985 0.000000 0.949219 0.570312
0.500000 0.930000 0.375000 0.499985 -0.866024 0.000000 0.996094 1.000000
0.500000 0.930000 0.050000 0.499985 -0.866024 0.000000 0.996094 0.789062
0.525981 0.945000 0.050000 0.866024 -0.499985 0.000000 0.949219 0.789062
0.937500 1.000000 0.000000 0.000000 1.000000 0.000000 0.226562 0.546875
0.000000 1.000000 0.000000 0.000000 1.000000 0.000000 0.226562 1.000000
0.000000 1.000000 0.050000 0.000000 1.000000 0.000000 0.195312 1.000000
0.937500 0.000000 0.000000 0.000000 -1.000000 0.000000 0.109375 0.546875
0.875000 0.000000 0.050000 0.000000 -1.000000 0.000000 0.078125 0.578125
0.000000 0.000000 0.050000 0.000000 -1.000000 0.000000 0.078125 1.000000
0.500000 0.070000 0.375000 0.499985 0.866024 0.000000 0.714844 0.781250
0.525981 0.055000 0.375000 0.866024 0.499985 0.000000 0.761719 0.781250
0.525981 0.055000 0.050000 0.866024 0.499985 0.000000 0.761719 0.570312
0.000000 0.906250 0.000000 0.000000 0.000000 0.999969 1.000000 0.500000
0.000000 0.093750 0.000000 0.000000 0.000000 1.000000 0.593750 0.500000
1.000000 0.093750 0.000000 0.000000 0.000000 0.999969 0.593750 0.000000
0.937500 0.906250 0.000000 0.000000 -1.000000 0.000000 0.117188 0.546875
0.875000 0.906250 0.050000 0.000000 -1.000000 0.000000 0.148438 0.578125
0.000000 0.906250 0.050000 0.000000 -1.000000 0.000000 0.148438 1.000000
0.500000 0.070000 0.375000 -0.499985 0.866024 0.000000 0.996094 0.781250
0.500000 0.070000 0.050000 -0.499985 0.866024 0.000000 0.996094 0.570312
1.000000 0.906250 0.000000 0.624683 0.000000 0.780847 0.359375 0.507812
1.000000 1.000000 0.000000 0.624683 0.000000 0.780847 0.312500 0.507812
0.000000 1.000000 0.800000 0.624683 0.000000 0.780847 0.312500 1.000000
0.000000 0.093750 0.750000 0.000000 1.000000 0.000000 0.398438 0.968750
0.000000 0.093750 0.800000 0.000000 1.000000 0.000000 0.429688 1.000000
1.000000 0.093750 0.000000 0.000000 1.000000 0.000000 0.429688 0.507812
0.525981 0.025000 0.375000 0.866024 -0.499985 0.000000 0.808594 0.781250
0.525981 0.025000 0.050000 0.866024 -0.499985 0.000000 0.808594 0.570312
0.875000 0.093750 0.050000 0.000000 0.000000 1.000000 0.031250 0.578125
0.000000 0.093750 0.050000 0.000000 0.000000 1.000000 0.031250 1.000000
0.000000 0.000000 0.050000 0.000000 0.000000 1.000000 0.078125 1.000000
0.000000 0.093750 0.750000 -0.624683 0.000000 -0.780847 0.554688 0.968750
0.937500 0.093750 0.000000 -0.624683 0.000000 -0.780847 0.554688 0.539062
0.937500 0.000000 0.000000 -0.624683 0.000000 -0.780847 0.507812 0.539062
0.500000 0.010000 0.375000 0.000000 -1.000000 0.000000 0.855469 0.781250
0.500000 0.010000 0.050000 0.000000 -1.000000 0.000000 0.855469 0.570312
0.500000 0.930000 0.050000 -0.499985 -0.866024 0.000000 0.714844 0.789062
0.500000 0.930000 0.375000 -0.499985 -0.866024 0.000000 0.714844 1.000000
0.474019 0.975000 0.050000 -0.866024 0.499985 0.000000 0.808594 0.789062
0.500000 0.990000 0.375000 0.000000 1.000000 0.000000 0.855469 1.000000
0.937500 1.000000 0.000000 -0.624683 0.000000 -0.780847 0.281250 0.539062
0.937500 0.906250 0.000000 -0.624683 0.000000 -0.780847 0.234375 0.539062
0.000000 0.906250 0.750000 -0.624683 0.000000 -0.780847 0.234375 0.968750
0.000000 0.000000 0.750000 0.000000 -1.000000 0.000000 0.507812 0.968750
0.937500 0.000000 0.000000 0.000000 -1.000000 0.000000 0.507812 0.539062
1.000000 0.000000 0.000000 0.000000 -1.000000 0.000000 0.476562 0.507812
0.000000 0.000000 0.800000 0.624683 0.000000 0.780847 0.476562 1.000000
1.000000 0.000000 0.000000 0.624683 0.000000 0.780847 0.476562 0.507812
1.000000 0.093750 0.000000 0.624683 0.000000 0.780847 0.429688 0.507812
0.474019 0.025000 0.050000 -0.866024 -0.499985 0.000000 0.902344 0.570312
0.000000 0.093750 0.050000 0.000000 1.000000 0.000000 0.031250 1.000000
0.875000 0.093750 0.050000 0.000000 1.000000 0.000000 0.031250 0.578125
0.937500 0.093750 0.000000 0.000000 1.000000 0.000000 0.000000 0.546875
1.000000 1.000000 0.000000 0.000000 1.000000 0.000000 0.312500 0.507812
0.937500 1.000000 0.000000 0.000000 1.000000 0.000000 0.281250 0.539062
0.000000 1.000000 0.750000 0.000000 1.000000 0.000000 0.281250 0.968750
0.000000 0.906250 0.800000 0.000000 -1.000000 0.000000 0.359375 1.000000
0.875000 1.000000 0.050000 0.000000 0.000000 1.000000 0.195312 0.578125
0.875000 1.000000 0.050000 0.000000 1.000000 0.000000 0.195312 0.578125
0.000000 0.000000 0.000000 0.000000 -1.000000 0.000000 0.109375 1.000000
0.500000 0.070000 0.050000 0.499985 0.866024 0.000000 0.714844 0.570312
1.000000 0.906250 0.000000 0.000000 0.000000 1.000000 1.000000 0.000000
0.000000 0.906250 0.000000 0.000000 -1.000000 0.000000 0.117188 1.000000
0.000000 0.906250 0.800000 0.624683 0.000000 0.780847 0.359375 1.000000
0.937500 0.093750 0.000000 0.000000 1.000000 0.000000 0.398438 0.539062
0.875000 0.000000 0.050000 0.000000 0.000000 1.000000 0.078125 0.578125
0.000000 0.000000 0.750000 -0.624683 0.000000 -0.780847 0.507812 0.968750
0.000000 1.000000 0.750000 -0.624683 0.000000 -0.780847 0.281250 0.968750
0.000000 0.000000 0.800000 0.000000 -1.000000 0.000000 0.476562 1.000000
0.000000 0.093750 0.800000 0.624683 0.000000 0.780847 0.429688 1.000000
0.000000 0.093750 0.000000 0.000000 1.000000 0.000000 0.000000 1.000000
0.000000 1.000000 0.800000 0.000000 1.000000 0.000000 0.312500 1.000000
3 0 1 2
3 1 0 3
3 4 5 6
3 7 8 9
3 10 11 12
3 13 14 15
3 16 17 18
3 19 20 21
3 22 23 24
3 25 26 27
3 28 29 30
3 31 32 33
3 14 34 35
3 36 37 38
3 39 40 41
3 26 42 43
3 44 45 46
3 47 48 49
3 42 50 51
3 52 53 5
3 54 6 55
3 56 57 58
3 59 60 61
3 62 63 64
3 50 13 65
3 66 67 68
3 69 70 71
3 18 0 2
3 55 1 3
3 54 4 6
3 72 7 9
3 73 10 12
3 65 13 15
3 2 16 18
3 74 19 21
3 75 22 24
3 76 25 27
3 77 28 30
3 78 31 33
3 15 14 35
3 79 36 38
3 80 39 41
3 27 26 43
3 81 44 46
3 82 47 49
3 43 42 51
3 4 52 5
3 3 54 55
3 83 56 58
3 84 59 61
3 85 62 64
3 51 50 65
3 86 66 68
3 87 69 71
