ply
format ascii 1.0
comment Created by Blender 2.71 (sub 0) - www.blender.org
element vertex 250
property float x
property float y
property float z
property float nx
property float ny
property float nz
property float s
property float t
element face 120
property list uchar uint vertex_indices
end_header
0.374575 0.902500 0.000000 0.000000 0.000000 -1.000000 0.420260 0.500167
0.374575 0.102500 0.000000 0.000000 0.000000 -1.000000 0.420260 0.764656
0.094575 0.102500 0.000000 0.000000 0.000000 -1.000000 0.311771 0.764656
0.734575 0.262499 1.327126 0.629505 -0.629505 -0.455367 0.062170 0.100634
0.767339 0.229735 1.417714 0.667653 -0.667653 -0.329264 0.049381 0.074414
0.221811 0.229735 1.417714 -0.667653 -0.667653 -0.329264 0.260748 0.074414
0.551982 0.559906 1.769502 0.081545 0.081545 0.993316 0.080880 0.561344
0.437168 0.559906 1.769502 -0.081545 0.081545 0.993316 0.129112 0.569139
0.437168 0.445092 1.769502 -0.081545 -0.081545 0.993316 0.122349 0.612484
0.639935 0.900166 0.248686 0.000003 0.992811 0.119695 0.535650 0.408852
0.349215 0.900167 0.248686 0.000003 0.992811 0.119695 0.394866 0.403423
0.450217 0.799164 1.086452 0.000003 0.992811 0.119695 0.439471 0.181651
0.791273 0.458141 1.086457 0.744041 -0.000008 0.668134 0.031318 0.673665
0.870571 0.458141 0.998150 0.744041 -0.000008 0.668134 0.062127 0.673665
0.870572 0.546857 0.998150 0.744041 -0.000008 0.668134 0.062127 0.702996
0.538933 0.205801 1.086457 0.000000 -0.992811 0.119694 0.129808 0.181640
0.450217 0.205801 1.086457 0.000000 -0.992811 0.119694 0.177309 0.185835
0.349215 0.104799 0.248691 0.000000 -0.992811 0.119694 0.225712 0.408867
0.197877 0.546858 1.086457 0.000000 0.000000 0.000000 0.000000 0.000000
0.197877 0.546858 1.086457 0.000000 0.000000 0.000000 0.000000 0.000000
0.197877 0.458142 1.086457 0.000000 0.000000 0.000000 0.000000 0.000000
0.551982 0.445092 1.769502 0.081545 -0.081545 0.993316 0.074124 0.604692
0.673401 0.323673 1.742724 0.309641 -0.309641 0.898984 0.031428 0.643925
0.673402 0.681326 1.742724 0.309641 0.309641 0.898984 0.034614 0.526663
0.094575 0.902500 0.000000 0.000000 0.999956 0.009381 0.309963 0.500167
0.349215 0.900167 0.248686 0.000000 0.999956 0.009381 0.394866 0.403423
0.374575 0.902500 0.000000 0.000000 0.999956 0.009381 0.418450 0.500167
0.538933 0.799164 1.086452 0.121062 0.983669 0.133188 0.486974 0.185833
0.734575 0.742499 1.327126 0.121062 0.983669 0.133188 0.557756 0.100634
0.894575 0.902499 0.000000 0.121062 0.983669 0.133188 0.619926 0.500167
0.450217 0.799164 1.086452 -0.121062 0.983669 0.133189 0.439471 0.181651
0.349215 0.900167 0.248686 -0.121062 0.983669 0.133189 0.394866 0.403423
0.094575 0.902500 0.000000 -0.121062 0.983669 0.133189 0.309963 0.500167
0.450217 0.799164 1.086452 0.000002 0.973385 0.229174 0.439471 0.181651
0.254575 0.742500 1.327126 0.000002 0.973385 0.229174 0.371778 0.100634
0.734575 0.742499 1.327126 0.000002 0.973385 0.229174 0.557756 0.100634
0.892275 0.357139 0.248691 0.999957 0.000000 0.009248 0.855929 0.937973
0.894575 0.102499 0.000000 0.999957 0.000000 0.009248 0.929895 1.000000
0.894575 0.902499 0.000000 0.999957 0.000000 0.009248 0.619926 1.000000
0.791273 0.546857 1.086457 0.983649 0.121206 0.133203 0.743139 0.654668
0.892275 0.647860 0.248691 0.983649 0.121206 0.133203 0.698214 0.922820
0.894575 0.902499 0.000000 0.983649 0.121206 0.133203 0.619926 1.000000
0.791273 0.458141 1.086457 0.983649 -0.121207 0.133203 0.797135 0.670347
0.734575 0.262499 1.327126 0.983649 -0.121207 0.133203 0.867901 0.600859
0.894575 0.102499 0.000000 0.983649 -0.121207 0.133203 0.929895 1.000000
0.791273 0.458141 1.086457 0.973354 0.000000 0.229308 0.797135 0.670347
0.791273 0.546857 1.086457 0.973354 0.000000 0.229308 0.743139 0.654668
0.734575 0.742499 1.327126 0.973354 0.000000 0.229308 0.681920 0.600859
0.894575 0.102499 0.000000 -0.000004 -0.999957 0.009244 0.000000 0.500167
0.639935 0.104799 0.248691 -0.000004 -0.999957 0.009244 0.084944 0.403434
0.614575 0.102500 0.000000 -0.000004 -0.999957 0.009244 0.108487 0.500167
0.538933 0.205801 1.086457 0.121206 -0.983649 0.133203 0.129808 0.181640
0.639935 0.104799 0.248691 0.121206 -0.983649 0.133203 0.084944 0.403434
0.894575 0.102499 0.000000 0.121206 -0.983649 0.133203 0.000000 0.500167
0.450217 0.205801 1.086457 -0.121211 -0.983649 0.133203 0.177309 0.185835
0.254575 0.262500 1.327126 -0.121211 -0.983649 0.133203 0.248148 0.100634
0.094575 0.102500 0.000000 -0.121211 -0.983649 0.133203 0.309963 0.500167
0.538933 0.205801 1.086457 -0.000002 -0.973354 0.229309 0.129808 0.181640
0.734575 0.262499 1.327126 -0.000002 -0.973354 0.229309 0.062170 0.100634
0.254575 0.262500 1.327126 -0.000002 -0.973354 0.229309 0.248148 0.100634
0.096875 0.357139 0.248691 -0.999957 0.000000 0.009248 0.717919 0.410182
0.096875 0.647860 0.248691 -0.999957 0.000000 0.009248 0.836395 0.423364
0.094575 0.902500 0.000000 -0.999957 0.000000 0.009248 0.929895 0.500020
0.197877 0.458142 1.086457 -0.983649 -0.121207 0.133203 0.751882 0.184856
0.096875 0.357139 0.248691 -0.983649 -0.121207 0.133203 0.717919 0.410182
0.094575 0.102500 0.000000 -0.983649 -0.121207 0.133203 0.619926 0.500020
0.197877 0.546858 1.086457 -0.983649 0.121207 0.133203 0.791428 0.197003
0.254575 0.742500 1.327126 -0.983649 0.121207 0.133203 0.867901 0.100806
0.094575 0.902500 0.000000 -0.983649 0.121207 0.133203 0.929895 0.500020
0.614575 0.102500 0.000000 -0.827635 -0.000000 -0.561267 0.929895 0.000000
0.494575 0.102500 0.176950 -0.827635 -0.000000 -0.561267 0.988950 0.000000
0.494575 0.902500 0.176950 -0.827635 -0.000000 -0.561267 0.988950 0.264489
0.494575 0.102500 0.176950 0.827635 0.000000 -0.561267 0.532903 0.500167
0.374575 0.102500 0.000000 0.827635 0.000000 -0.561267 0.592083 0.500167
0.374575 0.902500 0.000000 0.827635 0.000000 -0.561267 0.592083 0.764656
0.894575 0.902499 0.000000 0.000000 0.000000 -1.000000 0.311771 0.500167
0.894575 0.102499 0.000000 0.000000 0.000000 -1.000000 0.311771 0.764656
0.614575 0.102500 0.000000 0.000000 0.000000 -1.000000 0.203282 0.764656
0.197877 0.458142 1.086457 -0.695613 0.000000 0.718416 0.031318 0.673665
0.197877 0.546858 1.086457 -0.695613 0.000000 0.718416 0.031318 0.702995
0.118578 0.546858 1.009675 -0.695613 0.000000 0.718416 0.000000 0.702995
0.096875 0.647860 0.248691 0.000000 0.000000 0.000000 0.000000 0.000000
0.096875 0.647860 0.248691 0.000000 0.000000 0.000000 0.000000 0.000000
0.197877 0.458142 1.086457 0.000000 0.000000 0.000000 0.000000 0.000000
0.096875 0.357139 0.248691 0.000000 0.000000 0.000000 0.000000 0.000000
0.096875 0.357139 0.248691 0.000000 0.000000 0.000000 0.000000 0.000000
0.118578 0.458142 1.009675 -0.988520 0.000000 0.151088 0.493769 0.727672
0.118578 0.546858 1.009675 -0.988520 0.000000 0.151088 0.459395 0.727672
0.017577 0.647860 0.348859 -0.988520 0.000000 0.151088 0.420260 0.528463
0.197877 0.546858 1.086457 0.130325 0.986089 0.103172 1.000000 0.264489
0.096875 0.647860 0.248691 0.130325 0.986089 0.103172 1.000000 0.518888
0.017577 0.647860 0.348859 0.130325 0.986089 0.103172 0.964975 0.492709
0.197877 0.458142 1.086457 -0.168526 -0.970209 0.174051 1.000000 0.773316
0.118578 0.458142 1.009675 -0.168526 -0.970209 0.174051 0.973039 0.747188
0.017576 0.357139 0.348859 -0.168526 -0.970209 0.174051 0.964975 0.545096
0.096875 0.357139 0.248691 -0.784048 0.000003 -0.620700 0.532903 0.500167
0.017576 0.357139 0.348859 -0.784048 0.000003 -0.620700 0.532903 0.528463
0.017577 0.647860 0.348859 -0.784048 0.000003 -0.620700 0.420260 0.528463
0.870572 0.546857 0.998150 0.988116 -0.000011 0.153712 0.757723 0.671812
0.870571 0.458141 0.998150 0.988116 -0.000011 0.153712 0.792097 0.671813
0.971574 0.357139 0.348859 0.988116 -0.000011 0.153712 0.831232 0.897372
0.892275 0.357139 0.248691 -0.160737 -0.978760 0.127249 0.964975 0.518918
0.971574 0.357139 0.348859 -0.160737 -0.978760 0.127249 0.929895 0.492765
0.870571 0.458141 0.998150 -0.160737 -0.978760 0.127249 0.933978 0.264489
0.892275 0.647860 0.248691 0.151815 0.978962 0.136329 0.964975 0.518918
0.791273 0.546857 1.086457 0.151815 0.978962 0.136329 0.964975 0.773341
0.870572 0.546857 0.998150 0.151815 0.978962 0.136329 0.933978 0.773347
0.892275 0.647860 0.248691 0.784048 0.000000 -0.620700 0.698214 0.922820
0.971574 0.647860 0.348859 0.784048 0.000000 -0.620700 0.726925 0.872246
0.971574 0.357139 0.348859 0.784048 0.000000 -0.620700 0.831232 0.897372
0.094575 0.902500 0.000000 0.000000 0.000000 -1.000000 0.311771 0.500167
0.538933 0.799164 1.086452 0.000000 0.992811 0.119694 0.486974 0.185833
0.639935 0.900166 0.248686 0.000000 0.992811 0.119694 0.535650 0.408852
0.450217 0.799164 1.086452 0.000000 0.992811 0.119694 0.439471 0.181651
0.791273 0.546857 1.086457 0.744037 -0.000000 0.668139 0.031318 0.702995
0.791273 0.458141 1.086457 0.744037 -0.000000 0.668139 0.031318 0.673665
0.870572 0.546857 0.998150 0.744037 -0.000000 0.668139 0.062127 0.702996
0.639935 0.104799 0.248691 0.000000 -0.992811 0.119694 0.084944 0.403434
0.538933 0.205801 1.086457 0.000000 -0.992811 0.119694 0.129808 0.181640
0.349215 0.104799 0.248691 0.000000 -0.992811 0.119694 0.225712 0.408867
0.639935 0.900166 0.248686 0.000003 0.999471 0.032512 0.535650 0.408852
0.494575 0.902500 0.176950 0.000003 0.999471 0.032512 0.464973 0.447409
0.349215 0.900167 0.248686 0.000003 0.999471 0.032512 0.394866 0.403423
0.639935 0.900166 0.248686 0.000003 0.999956 0.009385 0.535650 0.408852
0.894575 0.902499 0.000000 0.000003 0.999956 0.009385 0.619926 0.500167
0.614575 0.902500 0.000000 0.000003 0.999956 0.009385 0.511439 0.500167
0.639935 0.900166 0.248686 0.121061 0.983669 0.133187 0.535650 0.408852
0.538933 0.799164 1.086452 0.121061 0.983669 0.133187 0.486974 0.185833
0.894575 0.902499 0.000000 0.121061 0.983669 0.133187 0.619926 0.500167
0.639935 0.900166 0.248686 0.012029 0.999894 0.008158 0.535650 0.408852
0.614575 0.902500 0.000000 0.012029 0.999894 0.008158 0.511439 0.500167
0.494575 0.902500 0.176950 0.012029 0.999894 0.008158 0.464973 0.447409
0.349215 0.900167 0.248686 -0.012024 0.999895 0.008154 0.394866 0.403423
0.494575 0.902500 0.176950 -0.012024 0.999895 0.008154 0.464973 0.447409
0.374575 0.902500 0.000000 -0.012024 0.999895 0.008154 0.418450 0.500167
0.254575 0.742500 1.327126 -0.121057 0.983670 0.133187 0.371778 0.100634
0.450217 0.799164 1.086452 -0.121057 0.983670 0.133187 0.439471 0.181651
0.094575 0.902500 0.000000 -0.121057 0.983670 0.133187 0.309963 0.500167
0.538933 0.799164 1.086452 -0.000000 0.973385 0.229177 0.486974 0.185833
0.450217 0.799164 1.086452 -0.000000 0.973385 0.229177 0.439471 0.181651
0.734575 0.742499 1.327126 -0.000000 0.973385 0.229177 0.557756 0.100634
0.892275 0.647860 0.248691 0.999957 -0.000000 0.009248 0.698214 0.922820
0.892275 0.357139 0.248691 0.999957 -0.000000 0.009248 0.855929 0.937973
0.894575 0.902499 0.000000 0.999957 -0.000000 0.009248 0.619926 1.000000
0.734575 0.742499 1.327126 0.983649 0.121207 0.133203 0.681920 0.600859
0.791273 0.546857 1.086457 0.983649 0.121207 0.133203 0.743139 0.654668
0.894575 0.902499 0.000000 0.983649 0.121207 0.133203 0.619926 1.000000
0.892275 0.357139 0.248691 0.983649 -0.121206 0.133203 0.855929 0.937973
0.791273 0.458141 1.086457 0.983649 -0.121206 0.133203 0.797135 0.670347
0.894575 0.102499 0.000000 0.983649 -0.121206 0.133203 0.929895 1.000000
0.734575 0.262499 1.327126 0.973354 0.000000 0.229308 0.867901 0.600859
0.791273 0.458141 1.086457 0.973354 0.000000 0.229308 0.797135 0.670347
0.734575 0.742499 1.327126 0.973354 0.000000 0.229308 0.681920 0.600859
0.349215 0.104799 0.248691 0.000000 -0.999487 0.032029 0.225712 0.408867
0.494575 0.102500 0.176950 0.000000 -0.999487 0.032029 0.154953 0.447409
0.639935 0.104799 0.248691 0.000000 -0.999487 0.032029 0.084944 0.403434
0.349215 0.104799 0.248691 0.000000 -0.999957 0.009244 0.225712 0.408867
0.094575 0.102500 0.000000 0.000000 -0.999957 0.009244 0.309963 0.500167
0.374575 0.102500 0.000000 0.000000 -0.999957 0.009244 0.201476 0.500167
0.734575 0.262499 1.327126 0.121207 -0.983649 0.133203 0.062170 0.100634
0.538933 0.205801 1.086457 0.121207 -0.983649 0.133203 0.129808 0.181640
0.894575 0.102499 0.000000 0.121207 -0.983649 0.133203 0.000000 0.500167
0.349215 0.104799 0.248691 -0.011849 -0.999897 0.008035 0.225712 0.408867
0.374575 0.102500 0.000000 -0.011849 -0.999897 0.008035 0.201476 0.500167
0.494575 0.102500 0.176950 -0.011849 -0.999897 0.008035 0.154953 0.447409
0.639935 0.104799 0.248691 0.011849 -0.999897 0.008035 0.084944 0.403434
0.494575 0.102500 0.176950 0.011849 -0.999897 0.008035 0.154953 0.447409
0.614575 0.102500 0.000000 0.011849 -0.999897 0.008035 0.108487 0.500167
0.349215 0.104799 0.248691 -0.121210 -0.983649 0.133203 0.225712 0.408867
0.450217 0.205801 1.086457 -0.121210 -0.983649 0.133203 0.177309 0.185835
0.094575 0.102500 0.000000 -0.121210 -0.983649 0.133203 0.309963 0.500167
0.450217 0.205801 1.086457 0.000000 -0.973353 0.229311 0.177309 0.185835
0.538933 0.205801 1.086457 0.000000 -0.973353 0.229311 0.129808 0.181640
0.254575 0.262500 1.327126 0.000000 -0.973353 0.229311 0.248148 0.100634
0.094575 0.102500 0.000000 -0.999957 0.000000 0.009248 0.619926 0.500020
0.254575 0.262500 1.327126 -0.983649 -0.121207 0.133203 0.681920 0.100806
0.096875 0.647860 0.248691 -0.983649 0.121206 0.133203 0.836395 0.423364
0.197877 0.546858 1.086457 -0.983649 0.121206 0.133203 0.791428 0.197003
0.094575 0.902500 0.000000 -0.983649 0.121206 0.133203 0.929895 0.500020
0.197877 0.546858 1.086457 -0.973354 0.000000 0.229308 0.791428 0.197003
0.197877 0.458142 1.086457 -0.973354 0.000000 0.229308 0.751882 0.184856
0.254575 0.742500 1.327126 -0.973354 0.000000 0.229308 0.867901 0.100806
0.614575 0.902500 0.000000 -0.827635 0.000000 -0.561267 0.929895 0.264489
0.494575 0.902500 0.176950 0.827635 0.000000 -0.561267 0.532903 0.764656
0.494575 0.102500 0.176950 0.827635 0.000000 -0.561267 0.532903 0.500167
0.374575 0.902500 0.000000 0.827635 0.000000 -0.561267 0.592083 0.764656
0.614575 0.902500 0.000000 0.000000 0.000000 -1.000000 0.203282 0.500167
0.118578 0.458142 1.009675 -0.695613 0.000000 0.718416 0.000000 0.673665
0.197877 0.458142 1.086457 -0.695613 0.000000 0.718416 0.031318 0.673665
0.118578 0.546858 1.009675 -0.695613 0.000000 0.718416 0.000000 0.702995
0.017576 0.357139 0.348859 -0.988520 0.000003 0.151089 0.532903 0.528463
0.118578 0.458142 1.009675 -0.988520 0.000003 0.151089 0.493769 0.727672
0.017577 0.647860 0.348859 -0.988520 0.000003 0.151089 0.420260 0.528463
0.118578 0.546858 1.009675 -0.168524 0.970210 0.174049 0.973039 0.290617
0.197877 0.546858 1.086457 -0.168524 0.970210 0.174049 1.000000 0.264489
0.017577 0.647860 0.348859 -0.168524 0.970210 0.174049 0.964975 0.492709
0.096875 0.357139 0.248691 0.130325 -0.986089 0.103173 1.000000 0.518918
0.197877 0.458142 1.086457 0.130325 -0.986089 0.103173 1.000000 0.773316
0.017576 0.357139 0.348859 0.130325 -0.986089 0.103173 0.964975 0.545096
0.096875 0.647860 0.248691 -0.784052 0.000000 -0.620695 0.420260 0.500167
0.096875 0.357139 0.248691 -0.784052 0.000000 -0.620695 0.532903 0.500167
0.017577 0.647860 0.348859 -0.784052 0.000000 -0.620695 0.420260 0.528463
0.971574 0.647860 0.348859 0.988116 0.000000 0.153709 0.726925 0.872246
0.870572 0.546857 0.998150 0.988116 0.000000 0.153709 0.757723 0.671812
0.971574 0.357139 0.348859 0.988116 0.000000 0.153709 0.831232 0.897372
0.791273 0.458141 1.086457 0.151816 -0.978962 0.136328 0.964975 0.264494
0.892275 0.357139 0.248691 0.151816 -0.978962 0.136328 0.964975 0.518918
0.870571 0.458141 0.998150 0.151816 -0.978962 0.136328 0.933978 0.264489
0.971574 0.647860 0.348859 -0.160739 0.978760 0.127251 0.929895 0.545070
0.892275 0.647860 0.248691 -0.160739 0.978760 0.127251 0.964975 0.518918
0.870572 0.546857 0.998150 -0.160739 0.978760 0.127251 0.933978 0.773347
0.892275 0.357139 0.248691 0.784048 0.000000 -0.620700 0.855929 0.937973
0.892275 0.647860 0.248691 0.784048 0.000000 -0.620700 0.698214 0.922820
0.971574 0.357139 0.348859 0.784048 0.000000 -0.620700 0.831232 0.897372
0.221811 0.229735 1.417714 -0.667653 -0.667653 -0.329264 0.669225 0.074433
0.221811 0.775264 1.417714 -0.667653 0.667653 -0.329264 0.880596 0.074433
0.254575 0.742500 1.327126 -0.761650 0.547868 -0.345958 0.867901 0.100806
0.734575 0.742499 1.327126 0.629505 0.629505 -0.455367 0.681920 0.600859
0.767339 0.775263 1.417714 0.667653 0.667653 -0.329264 0.669225 0.574455
0.767339 0.229735 1.417714 0.667653 -0.667653 -0.329264 0.880596 0.574455
0.756965 0.240109 1.666466 0.576983 -0.576983 0.578021 0.000000 0.673665
0.756966 0.764890 1.666466 0.577013 0.577013 0.578021 0.000000 0.500167
0.756965 0.240109 1.666466 0.576983 -0.576983 0.578021 0.876576 0.500020
0.789952 0.207122 1.552338 0.705435 -0.705435 0.068453 0.889357 0.534715
0.789952 0.797876 1.552338 0.705435 0.705435 0.068453 0.660463 0.534715
0.221811 0.775264 1.417714 -0.667653 0.667653 -0.329264 0.359178 0.074414
0.199198 0.797876 1.552338 -0.705435 0.705435 0.068453 0.350494 0.034821
0.789952 0.797876 1.552338 0.705435 0.705435 0.068453 0.579384 0.034821
0.232185 0.764890 1.666466 -0.576983 0.577013 0.578021 0.363212 0.000000
0.232185 0.764890 1.666466 -0.576983 0.577013 0.578021 0.203282 0.500167
0.315748 0.681326 1.742724 -0.309641 0.309641 0.898984 0.171817 0.529908
0.315748 0.323673 1.742724 -0.309641 -0.309641 0.898984 0.168630 0.647164
0.232184 0.240109 1.666466 -0.577013 -0.576983 0.578021 0.203282 0.673665
0.232184 0.240109 1.666466 -0.577013 -0.576983 0.578021 0.256713 0.000000
0.199198 0.207123 1.552338 -0.705435 -0.705435 0.068453 0.269432 0.034821
0.789952 0.207122 1.552338 0.705435 -0.705435 0.068453 0.040542 0.034821
0.232185 0.764890 1.666466 -0.576983 0.577013 0.578021 0.876576 0.000000
0.199198 0.797876 1.552338 -0.705435 0.705435 0.068453 0.889357 0.034717
0.199198 0.207123 1.552338 -0.705435 -0.705435 0.068453 0.660463 0.034717
0.734575 0.742499 1.327126 0.629505 0.629505 -0.455367 0.557756 0.100634
0.254575 0.742500 1.327126 -0.761650 0.547868 -0.345958 0.371778 0.100634
0.197877 0.458142 1.086457 -0.973327 0.000000 0.229286 0.751882 0.184856
0.254575 0.262500 1.327126 -0.786737 -0.527512 -0.320505 0.681920 0.100806
0.254575 0.262500 1.327126 -0.786737 -0.527512 -0.320505 0.248148 0.100634
0.734575 0.262499 1.327126 0.629505 -0.629505 -0.455367 0.867901 0.600859
0.756966 0.764890 1.666466 0.577013 0.577013 0.578021 0.673244 0.500020
0.767339 0.775263 1.417714 0.667653 0.667653 -0.329264 0.570545 0.074414
0.756966 0.764890 1.666466 0.577013 0.577013 0.578021 0.566541 0.000000
0.756965 0.240109 1.666466 0.576983 -0.576983 0.578021 0.053385 0.000000
0.232184 0.240109 1.666466 -0.577013 -0.576983 0.578021 0.673244 0.000000
3 0 1 2
3 3 4 5
3 6 7 8
3 9 10 11
3 12 13 14
3 15 16 17
3 18 19 20
3 21 22 23
3 24 25 26
3 27 28 29
3 30 31 32
3 33 34 35
3 36 37 38
3 39 40 41
3 42 43 44
3 45 46 47
3 48 49 50
3 51 52 53
3 54 55 56
3 57 58 59
3 60 61 62
3 63 64 65
3 66 67 68
3 69 70 71
3 72 73 74
3 75 76 77
3 78 79 80
3 81 82 19
3 83 20 84
3 85 84 82
3 86 87 88
3 89 90 91
3 92 93 94
3 95 96 97
3 98 99 100
3 101 102 103
3 104 105 106
3 107 108 109
3 110 0 2
3 111 112 113
3 114 115 116
3 117 118 119
3 83 18 20
3 120 121 122
3 123 124 125
3 126 127 128
3 129 130 131
3 132 133 134
3 135 136 137
3 138 139 140
3 141 142 143
3 144 145 146
3 147 148 149
3 150 151 152
3 153 154 155
3 156 157 158
3 159 160 161
3 162 163 164
3 165 166 167
3 168 169 170
3 171 172 173
3 174 60 62
3 175 63 65
3 176 177 178
3 179 180 181
3 182 69 71
3 183 184 185
3 186 75 77
3 187 188 189
3 18 81 19
3 85 83 84
3 81 85 82
3 190 191 192
3 193 194 195
3 196 197 198
3 199 200 201
3 202 203 204
3 205 206 207
3 208 209 210
3 211 212 213
3 214 215 216
3 217 218 219
3 22 220 221
3 222 223 224
3 223 219 218
3 225 226 227
3 227 226 228
3 229 230 23
3 23 230 7
3 8 231 22
3 231 232 220
3 233 234 235
3 234 5 4
3 8 7 230
3 231 230 229
3 236 237 238
3 237 215 214
3 239 240 225
3 241 242 216
3 243 3 5
3 21 6 8
3 242 214 216
3 244 217 219
3 6 21 23
3 23 22 221
3 245 222 224
3 224 223 218
3 246 225 227
3 247 227 228
3 221 229 23
3 6 23 7
3 21 8 22
3 22 231 220
3 248 233 235
3 235 234 4
3 231 8 230
3 232 231 229
3 249 236 238
3 238 237 214
3 246 239 225
