ply
format ascii 1.0
comment Created by Blender 2.71 (sub 0) - www.blender.org
element vertex 46
property float x
property float y
property float z
property float nx
property float ny
property float nz
property float s
property float t
element face 22
property list uchar uint vertex_indices
end_header
0.750000 0.093750 0.500000 -1.000000 -0.000000 -0.000000 0.351562 1.000000
0.750000 0.093750 0.750000 -1.000000 -0.000000 -0.000000 0.421875 1.000000
0.750000 0.906250 0.750000 -1.000000 -0.000000 -0.000000 0.421875 0.187500
1.000000 0.093750 0.750000 -0.000000 0.000000 1.000000 0.492188 1.000000
1.000000 0.906250 0.750000 -0.000000 0.000000 1.000000 0.492188 0.187500
0.750000 0.906250 0.750000 -0.000000 0.000000 1.000000 0.421875 0.187500
0.500000 0.093750 0.250000 -1.000000 -0.000000 -0.000000 0.210938 1.000000
0.500000 0.093750 0.500000 -1.000000 -0.000000 -0.000000 0.281250 1.000000
0.500000 0.906250 0.500000 -1.000000 -0.000000 -0.000000 0.281250 0.187500
1.000000 0.093750 0.750000 -1.000000 -0.000000 -0.000000 0.492188 1.000000
1.000000 0.093750 1.000000 -1.000000 -0.000000 -0.000000 0.562500 1.000000
1.000000 0.906250 1.000000 -1.000000 -0.000000 -0.000000 0.562500 0.187500
0.750000 0.093750 0.500000 -0.000000 0.000000 1.000000 0.351562 1.000000
0.750000 0.906250 0.500000 -0.000000 0.000000 1.000000 0.351562 0.187500
0.500000 0.906250 0.500000 -0.000000 0.000000 1.000000 0.281250 0.187500
1.000000 0.000000 1.000000 -0.707107 0.000000 0.707107 0.414062 0.000000
1.000000 0.093750 1.000000 -0.707107 0.000000 0.707107 0.414062 0.093750
0.000000 0.093750 0.000000 -0.707107 0.000000 0.707107 0.820312 0.093750
0.000000 1.000000 0.000000 -0.707107 0.000000 0.707107 0.406250 0.000000
0.000000 0.906250 0.000000 -0.707107 0.000000 0.707107 0.406250 0.093750
1.000000 0.906250 1.000000 -0.707107 0.000000 0.707107 0.000000 0.093750
0.500000 0.093750 0.250000 -0.000000 0.000000 1.000000 0.210938 1.000000
0.500000 0.906250 0.250000 -0.000000 0.000000 1.000000 0.210938 0.187500
0.250000 0.906250 0.250000 -0.000000 0.000000 1.000000 0.140625 0.187500
0.250000 0.093750 0.000000 -1.000000 -0.000000 -0.000000 0.070312 1.000000
0.250000 0.093750 0.250000 -1.000000 -0.000000 -0.000000 0.140625 1.000000
0.250000 0.906250 0.250000 -1.000000 -0.000000 -0.000000 0.140625 0.187500
1.000000 0.093750 1.000000 0.000000 1.000000 0.000000 0.593750 0.195312
1.000000 0.093750 0.000000 0.000000 1.000000 0.000000 0.593750 1.000000
0.000000 0.093750 0.000000 0.000000 1.000000 0.000000 0.996094 1.000000
1.000000 0.906250 1.000000 0.000000 -1.000000 0.000000 1.000000 0.992188
0.000000 0.906250 0.000000 0.000000 -1.000000 0.000000 0.597656 0.187500
1.000000 0.906250 0.000000 0.000000 -1.000000 0.000000 1.000000 0.187500
0.250000 0.093750 0.000000 -0.000000 0.000000 1.000000 0.070312 1.000000
0.250000 0.906250 0.000000 -0.000000 0.000000 1.000000 0.070312 0.187500
0.000000 0.906250 0.000000 -0.000000 0.000000 1.000000 0.000000 0.187500
0.750000 0.906250 0.500000 -1.000000 0.000000 -0.000000 0.351562 0.187500
0.750000 0.093750 0.750000 0.000000 0.000000 1.000000 0.421875 1.000000
0.500000 0.906250 0.250000 -1.000000 0.000000 -0.000000 0.210938 0.187500
1.000000 0.906250 0.750000 -1.000000 0.000000 -0.000000 0.492188 0.187500
0.500000 0.093750 0.500000 0.000000 0.000000 1.000000 0.281250 1.000000
0.000000 0.000000 0.000000 -0.707107 0.000000 0.707107 0.820312 0.000000
1.000000 1.000000 1.000000 -0.707107 0.000000 0.707107 0.000000 0.000000
0.250000 0.093750 0.250000 0.000000 0.000000 1.000000 0.140625 1.000000
0.250000 0.906250 0.000000 -1.000000 0.000000 -0.000000 0.070312 0.187500
0.000000 0.093750 0.000000 0.000000 0.000000 1.000000 0.000000 1.000000
3 0 1 2
3 3 4 5
3 6 7 8
3 9 10 11
3 12 13 14
3 15 16 17
3 18 19 20
3 21 22 23
3 24 25 26
3 27 28 29
3 30 31 32
3 33 34 35
3 36 0 2
3 37 3 5
3 38 6 8
3 39 9 11
3 40 12 14
3 41 15 17
3 42 18 20
3 43 21 23
3 44 24 26
3 45 33 35
