ply
format ascii 1.0
comment Created by Blender 2.71 (sub 0) - www.blender.org
element vertex 145
property float x
property float y
property float z
property float nx
property float ny
property float nz
property float s
property float t
element face 256
property list uchar uint vertex_indices
end_header
0.000000 0.375000 -0.040000 0.000000 0.000000 1.000000 0.000000 0.375000
0.000000 0.875000 0.040000 0.000000 0.000000 1.000000 0.000000 0.875000
0.375000 0.375000 0.030000 -0.154241 0.154241 0.975890 0.375000 0.375000
0.500000 0.375000 0.040000 0.000000 0.000000 1.000000 0.500000 0.375000
0.437500 0.437500 0.030000 -0.154241 0.154241 0.975890 0.437500 0.437500
0.375000 0.875000 -0.030000 0.154241 -0.154241 0.975890 0.375000 0.875000
0.500000 0.875000 -0.040000 0.000000 0.000000 1.000000 0.500000 0.875000
0.437500 0.937500 -0.030000 0.154241 -0.154241 0.975890 0.437500 0.937500
0.875000 0.375000 -0.030000 0.154241 -0.154241 0.975890 0.875000 0.375000
1.000000 0.375000 -0.040000 0.000000 0.000000 1.000000 1.000000 0.375000
0.937500 0.437500 -0.030000 0.154241 -0.154241 0.975890 0.937500 0.437500
0.875000 0.875000 0.030000 -0.154241 0.154241 0.975890 0.875000 0.875000
1.000000 0.875000 0.040000 0.000000 0.000000 1.000000 1.000000 0.875000
0.937500 0.937500 0.030000 -0.154241 0.154241 0.975890 0.937500 0.937500
0.000000 0.125000 0.000000 -0.227241 0.227241 0.946928 0.000000 0.125000
0.000000 0.625000 0.000000 0.227241 -0.227241 0.946928 0.000000 0.625000
0.125000 0.375000 -0.030000 -0.154241 0.154241 0.975890 0.125000 0.375000
0.250000 0.375000 0.000000 -0.227241 0.227241 0.946928 0.250000 0.375000
0.187500 0.437500 -0.030000 -0.154241 0.154241 0.975890 0.187500 0.437500
0.125000 0.125000 0.030000 -0.154241 0.154241 0.975890 0.125000 0.125000
0.250000 0.125000 0.040000 0.000000 0.000000 1.000000 0.250000 0.125000
0.187500 0.187500 0.030000 -0.154241 0.154241 0.975890 0.187500 0.187500
0.375000 0.125000 0.030000 0.154241 -0.154241 0.975890 0.375000 0.125000
0.500000 0.125000 0.000000 0.227241 -0.227241 0.946928 0.500000 0.125000
0.437500 0.187500 0.030000 0.154241 -0.154241 0.975890 0.437500 0.187500
0.125000 0.875000 0.030000 0.154241 -0.154241 0.975890 0.125000 0.875000
0.250000 0.875000 0.000000 0.227241 -0.227241 0.946928 0.250000 0.875000
0.187500 0.937500 0.030000 0.154241 -0.154241 0.975890 0.187500 0.937500
0.125000 0.625000 -0.030000 0.154241 -0.154241 0.975890 0.125000 0.625000
0.250000 0.625000 -0.040000 0.000000 0.000000 1.000000 0.250000 0.625000
0.187500 0.687500 -0.030000 0.154241 -0.154241 0.975890 0.187500 0.687500
0.375000 0.625000 -0.030000 -0.154241 0.154241 0.975890 0.375000 0.625000
0.500000 0.625000 0.000000 -0.227241 0.227241 0.946928 0.500000 0.625000
0.437500 0.687500 -0.030000 -0.154241 0.154241 0.975890 0.437500 0.687500
0.625000 0.375000 0.030000 0.154241 -0.154241 0.975890 0.625000 0.375000
0.750000 0.375000 0.000000 0.227241 -0.227241 0.946928 0.750000 0.375000
0.687500 0.437500 0.030000 0.154241 -0.154241 0.975890 0.687500 0.437500
0.625000 0.125000 -0.030000 0.154241 -0.154241 0.975890 0.625000 0.125000
0.750000 0.125000 -0.040000 0.000000 0.000000 1.000000 0.750000 0.125000
0.687500 0.187500 -0.030000 0.154241 -0.154241 0.975890 0.687500 0.187500
0.875000 0.125000 -0.030000 -0.154241 0.154241 0.975890 0.875000 0.125000
1.000000 0.125000 0.000000 -0.227241 0.227241 0.946928 1.000000 0.125000
0.937500 0.187500 -0.030000 -0.154241 0.154241 0.975890 0.937500 0.187500
0.625000 0.875000 -0.030000 -0.154241 0.154241 0.975890 0.625000 0.875000
0.750000 0.875000 0.000000 -0.227241 0.227241 0.946928 0.750000 0.875000
0.687500 0.937500 -0.030000 -0.154241 0.154241 0.975890 0.687500 0.937500
0.625000 0.625000 0.030000 -0.154241 0.154241 0.975890 0.625000 0.625000
0.750000 0.625000 0.040000 0.000000 0.000000 1.000000 0.750000 0.625000
0.687500 0.687500 0.030000 -0.154241 0.154241 0.975890 0.687500 0.687500
0.875000 0.625000 0.030000 0.154241 -0.154241 0.975890 0.875000 0.625000
1.000000 0.625000 0.000000 0.227241 -0.227241 0.946928 1.000000 0.625000
0.937500 0.687500 0.030000 0.154241 -0.154241 0.975890 0.937500 0.687500
0.000000 0.250000 -0.030000 -0.154241 0.154241 0.975890 0.000000 0.250000
0.000000 0.750000 0.030000 0.154241 -0.154241 0.975890 0.000000 0.750000
0.312500 0.437500 0.000000 -0.227241 0.227241 0.946928 0.312500 0.437500
0.250000 0.250000 0.030000 -0.154241 0.154241 0.975890 0.250000 0.250000
0.375000 0.250000 0.040000 0.000000 0.000000 1.000000 0.375000 0.250000
0.312500 0.312500 0.030000 -0.154241 0.154241 0.975890 0.312500 0.312500
0.500000 0.250000 0.030000 0.154241 -0.154241 0.975890 0.500000 0.250000
0.437500 0.312500 0.040000 0.000000 0.000000 1.000000 0.437500 0.312500
0.312500 0.937500 0.000000 0.227241 -0.227241 0.946928 0.312500 0.937500
0.250000 0.750000 -0.030000 0.154241 -0.154241 0.975890 0.250000 0.750000
0.375000 0.750000 -0.040000 0.000000 0.000000 1.000000 0.375000 0.750000
0.312500 0.812500 -0.030000 0.154241 -0.154241 0.975890 0.312500 0.812500
0.500000 0.750000 -0.030000 -0.154241 0.154241 0.975890 0.500000 0.750000
0.437500 0.812500 -0.040000 0.000000 0.000000 1.000000 0.437500 0.812500
0.812500 0.437500 0.000000 0.227241 -0.227241 0.946928 0.812500 0.437500
0.750000 0.250000 -0.030000 0.154241 -0.154241 0.975890 0.750000 0.250000
0.875000 0.250000 -0.040000 0.000000 0.000000 1.000000 0.875000 0.250000
0.812500 0.312500 -0.030000 0.154241 -0.154241 0.975890 0.812500 0.312500
1.000000 0.250000 -0.030000 -0.154241 0.154241 0.975890 1.000000 0.250000
0.937500 0.312500 -0.040000 0.000000 0.000000 1.000000 0.937500 0.312500
0.812500 0.937500 0.000000 -0.227241 0.227241 0.946928 0.812500 0.937500
0.750000 0.750000 0.030000 -0.154241 0.154241 0.975890 0.750000 0.750000
0.875000 0.750000 0.040000 0.000000 0.000000 1.000000 0.875000 0.750000
0.812500 0.812500 0.030000 -0.154241 0.154241 0.975890 0.812500 0.812500
1.000000 0.750000 0.030000 0.154241 -0.154241 0.975890 1.000000 0.750000
0.937500 0.812500 0.040000 0.000000 0.000000 1.000000 0.937500 0.812500
0.000000 0.000000 0.030000 -0.154241 0.154241 0.975890 0.000000 0.000000
0.000000 0.500000 -0.030000 0.154241 -0.154241 0.975890 0.000000 0.500000
0.000000 1.000000 0.030000 -0.154241 0.154241 0.975890 0.000000 1.000000
0.062500 0.437500 -0.040000 0.000000 0.000000 1.000000 0.062500 0.437500
0.125000 0.250000 0.000000 -0.227241 0.227241 0.946928 0.125000 0.250000
0.062500 0.312500 -0.030000 -0.154241 0.154241 0.975890 0.062500 0.312500
0.187500 0.312500 0.000000 -0.227241 0.227241 0.946928 0.187500 0.312500
0.062500 0.187500 0.000000 -0.227241 0.227241 0.946928 0.062500 0.187500
0.125000 0.000000 0.040000 0.000000 0.000000 1.000000 0.125000 0.000000
0.062500 0.062500 0.030000 -0.154241 0.154241 0.975890 0.062500 0.062500
0.250000 0.000000 0.030000 0.154241 -0.154241 0.975890 0.250000 0.000000
0.187500 0.062500 0.040000 0.000000 0.000000 1.000000 0.187500 0.062500
0.312500 0.187500 0.040000 0.000000 0.000000 1.000000 0.312500 0.187500
0.375000 0.000000 0.000000 0.227241 -0.227241 0.946928 0.375000 0.000000
0.312500 0.062500 0.030000 0.154241 -0.154241 0.975890 0.312500 0.062500
0.500000 0.000000 -0.030000 0.154241 -0.154241 0.975890 0.500000 0.000000
0.437500 0.062500 0.000000 0.227241 -0.227241 0.946928 0.437500 0.062500
0.062500 0.937500 0.040000 0.000000 0.000000 1.000000 0.062500 0.937500
0.125000 0.750000 0.000000 0.227241 -0.227241 0.946928 0.125000 0.750000
0.062500 0.812500 0.030000 0.154241 -0.154241 0.975890 0.062500 0.812500
0.187500 0.812500 0.000000 0.227241 -0.227241 0.946928 0.187500 0.812500
0.062500 0.687500 0.000000 0.227241 -0.227241 0.946928 0.062500 0.687500
0.125000 0.500000 -0.040000 0.000000 0.000000 1.000000 0.125000 0.500000
0.062500 0.562500 -0.030000 0.154241 -0.154241 0.975890 0.062500 0.562500
0.250000 0.500000 -0.030000 -0.154241 0.154241 0.975890 0.250000 0.500000
0.187500 0.562500 -0.040000 0.000000 0.000000 1.000000 0.187500 0.562500
0.312500 0.687500 -0.040000 0.000000 0.000000 1.000000 0.312500 0.687500
0.375000 0.500000 0.000000 -0.227241 0.227241 0.946928 0.375000 0.500000
0.312500 0.562500 -0.030000 -0.154241 0.154241 0.975890 0.312500 0.562500
0.500000 0.500000 0.030000 -0.154241 0.154241 0.975890 0.500000 0.500000
0.437500 0.562500 0.000000 -0.227241 0.227241 0.946928 0.437500 0.562500
0.125000 1.000000 0.040000 0.000000 0.000000 1.000000 0.125000 1.000000
0.250000 1.000000 0.030000 0.154241 -0.154241 0.975890 0.250000 1.000000
0.375000 1.000000 0.000000 0.227241 -0.227241 0.946928 0.375000 1.000000
0.500000 1.000000 -0.030000 0.154241 -0.154241 0.975890 0.500000 1.000000
0.562500 0.437500 0.040000 0.000000 0.000000 1.000000 0.562500 0.437500
0.625000 0.250000 0.000000 0.227241 -0.227241 0.946928 0.625000 0.250000
0.562500 0.312500 0.030000 0.154241 -0.154241 0.975890 0.562500 0.312500
0.687500 0.312500 0.000000 0.227241 -0.227241 0.946928 0.687500 0.312500
0.562500 0.187500 0.000000 0.227241 -0.227241 0.946928 0.562500 0.187500
0.625000 0.000000 -0.040000 0.000000 0.000000 1.000000 0.625000 0.000000
0.562500 0.062500 -0.030000 0.154241 -0.154241 0.975890 0.562500 0.062500
0.750000 0.000000 -0.030000 -0.154241 0.154241 0.975890 0.750000 0.000000
0.687500 0.062500 -0.040000 0.000000 0.000000 1.000000 0.687500 0.062500
0.812500 0.187500 -0.040000 0.000000 0.000000 1.000000 0.812500 0.187500
0.875000 0.000000 0.000000 -0.227241 0.227241 0.946928 0.875000 0.000000
0.812500 0.062500 -0.030000 -0.154241 0.154241 0.975890 0.812500 0.062500
1.000000 0.000000 0.030000 -0.154241 0.154241 0.975890 1.000000 0.000000
0.937500 0.062500 0.000000 -0.227241 0.227241 0.946928 0.937500 0.062500
0.562500 0.937500 -0.040000 0.000000 0.000000 1.000000 0.562500 0.937500
0.625000 0.750000 0.000000 -0.227241 0.227241 0.946928 0.625000 0.750000
0.562500 0.812500 -0.030000 -0.154241 0.154241 0.975890 0.562500 0.812500
0.687500 0.812500 0.000000 -0.227241 0.227241 0.946928 0.687500 0.812500
0.562500 0.687500 0.000000 -0.227241 0.227241 0.946928 0.562500 0.687500
0.625000 0.500000 0.040000 0.000000 0.000000 1.000000 0.625000 0.500000
0.562500 0.562500 0.030000 -0.154241 0.154241 0.975890 0.562500 0.562500
0.750000 0.500000 0.030000 0.154241 -0.154241 0.975890 0.750000 0.500000
0.687500 0.562500 0.040000 0.000000 0.000000 1.000000 0.687500 0.562500
0.812500 0.687500 0.040000 0.000000 0.000000 1.000000 0.812500 0.687500
0.875000 0.500000 0.000000 0.227241 -0.227241 0.946928 0.875000 0.500000
0.812500 0.562500 0.030000 0.154241 -0.154241 0.975890 0.812500 0.562500
1.000000 0.500000 -0.030000 0.154241 -0.154241 0.975890 1.000000 0.500000
0.937500 0.562500 0.000000 0.227241 -0.227241 0.946928 0.937500 0.562500
0.625000 1.000000 -0.040000 0.000000 0.000000 1.000000 0.625000 1.000000
0.750000 1.000000 -0.030000 -0.154241 0.154241 0.975890 0.750000 1.000000
0.875000 1.000000 0.000000 -0.227241 0.227241 0.946928 0.875000 1.000000
1.000000 1.000000 0.030000 -0.154241 0.154241 0.975890 1.000000 1.000000
3 2 3 4
3 5 6 7
3 8 9 10
3 11 12 13
3 16 17 18
3 19 20 21
3 22 23 24
3 25 26 27
3 28 29 30
3 31 32 33
3 34 35 36
3 37 38 39
3 40 41 42
3 43 44 45
3 46 47 48
3 49 50 51
3 17 2 54
3 55 56 57
3 56 58 59
3 26 5 60
3 61 62 63
3 62 64 65
3 35 8 66
3 67 68 69
3 68 70 71
3 44 11 72
3 73 74 75
3 74 76 77
3 0 16 81
3 52 82 83
3 82 55 84
3 14 19 85
3 78 86 87
3 86 88 89
3 20 22 90
3 88 91 92
3 91 93 94
3 1 25 95
3 53 96 97
3 96 61 98
3 15 28 99
3 79 100 101
3 100 102 103
3 29 31 104
3 102 105 106
3 105 107 108
3 3 34 113
3 58 114 115
3 114 67 116
3 23 37 117
3 93 118 119
3 118 120 121
3 38 40 122
3 120 123 124
3 123 125 126
3 6 43 127
3 64 128 129
3 128 73 130
3 32 46 131
3 107 132 133
3 132 134 135
3 47 49 136
3 134 137 138
3 137 139 140
3 3 107 4
3 107 105 4
3 105 2 4
3 6 112 7
3 112 111 7
3 111 5 7
3 9 139 10
3 139 137 10
3 137 8 10
3 12 144 13
3 144 143 13
3 143 11 13
3 17 102 18
3 102 100 18
3 100 16 18
3 20 55 21
3 55 82 21
3 82 19 21
3 23 58 24
3 58 56 24
3 56 22 24
3 26 110 27
3 110 109 27
3 109 25 27
3 29 61 30
3 61 96 30
3 96 28 30
3 32 64 33
3 64 62 33
3 62 31 33
3 35 134 36
3 134 132 36
3 132 34 36
3 38 67 39
3 67 114 39
3 114 37 39
3 41 70 42
3 70 68 42
3 68 40 42
3 44 142 45
3 142 141 45
3 141 43 45
3 47 73 48
3 73 128 48
3 128 46 48
3 50 76 51
3 76 74 51
3 74 49 51
3 2 105 54
3 105 102 54
3 102 17 54
3 56 2 57
3 2 17 57
3 17 55 57
3 58 3 59
3 3 2 59
3 2 56 59
3 5 111 60
3 111 110 60
3 110 26 60
3 62 5 63
3 5 26 63
3 26 61 63
3 64 6 65
3 6 5 65
3 5 62 65
3 8 137 66
3 137 134 66
3 134 35 66
3 68 8 69
3 8 35 69
3 35 67 69
3 70 9 71
3 9 8 71
3 8 68 71
3 11 143 72
3 143 142 72
3 142 44 72
3 74 11 75
3 11 44 75
3 44 73 75
3 76 12 77
3 12 11 77
3 11 74 77
3 16 100 81
3 100 79 81
3 79 0 81
3 82 16 83
3 16 0 83
3 0 52 83
3 55 17 84
3 17 16 84
3 16 82 84
3 19 82 85
3 82 52 85
3 52 14 85
3 86 19 87
3 19 14 87
3 14 78 87
3 88 20 89
3 20 19 89
3 19 86 89
3 22 56 90
3 56 55 90
3 55 20 90
3 91 22 92
3 22 20 92
3 20 88 92
3 93 23 94
3 23 22 94
3 22 91 94
3 25 109 95
3 109 80 95
3 80 1 95
3 96 25 97
3 25 1 97
3 1 53 97
3 61 26 98
3 26 25 98
3 25 96 98
3 28 96 99
3 96 53 99
3 53 15 99
3 100 28 101
3 28 15 101
3 15 79 101
3 102 29 103
3 29 28 103
3 28 100 103
3 31 62 104
3 62 61 104
3 61 29 104
3 105 31 106
3 31 29 106
3 29 102 106
3 107 32 108
3 32 31 108
3 31 105 108
3 34 132 113
3 132 107 113
3 107 3 113
3 114 34 115
3 34 3 115
3 3 58 115
3 67 35 116
3 35 34 116
3 34 114 116
3 37 114 117
3 114 58 117
3 58 23 117
3 118 37 119
3 37 23 119
3 23 93 119
3 120 38 121
3 38 37 121
3 37 118 121
3 40 68 122
3 68 67 122
3 67 38 122
3 123 40 124
3 40 38 124
3 38 120 124
3 125 41 126
3 41 40 126
3 40 123 126
3 43 141 127
3 141 112 127
3 112 6 127
3 128 43 129
3 43 6 129
3 6 64 129
3 73 44 130
3 44 43 130
3 43 128 130
3 46 128 131
3 128 64 131
3 64 32 131
3 132 46 133
3 46 32 133
3 32 107 133
3 134 47 135
3 47 46 135
3 46 132 135
3 49 74 136
3 74 73 136
3 73 47 136
3 137 49 138
3 49 47 138
3 47 134 138
3 139 50 140
3 50 49 140
3 49 137 140
