ply
format ascii 1.0
comment Created by Blender 2.71 (sub 0) - www.blender.org
element vertex 30
property float x
property float y
property float z
property float nx
property float ny
property float nz
property float s
property float t
element face 12
property list uchar uint vertex_indices
end_header
0.000000 1.000000 0.000000 0.000000 0.000000 -1.000000 0.000000 0.000000
1.000000 1.000000 0.000000 0.000000 0.000000 -1.000000 1.000000 0.000000
1.000000 0.000000 0.000000 0.000000 0.000000 -1.000000 1.000000 1.000000
1.000000 0.000000 64.000000 -0.000000 0.000000 1.000000 0.000000 0.000000
1.000000 1.000000 64.000000 -0.000000 0.000000 1.000000 1.000000 0.000000
0.000000 1.000000 64.000000 -0.000000 0.000000 1.000000 1.000000 1.000000
0.000000 1.000000 0.000000 0.000000 1.000000 0.000000 0.000000 0.000000
0.000000 1.000000 64.000000 0.000000 1.000000 0.000000 1.000000 0.000000
1.000000 1.000000 64.000000 0.000000 1.000000 0.000000 1.000000 1.000000
1.000000 1.000000 0.000000 1.000000 -0.000000 0.000000 0.000000 0.000000
1.000000 1.000000 64.000000 1.000000 -0.000000 0.000000 1.000000 0.000000
1.000000 0.000000 64.000000 1.000000 -0.000000 0.000000 1.000000 1.000000
1.000000 0.000000 0.000000 0.000000 -1.000000 0.000000 0.000000 0.000000
1.000000 0.000000 64.000000 0.000000 -1.000000 0.000000 1.000000 0.000000
0.000000 0.000000 64.000000 0.000000 -1.000000 0.000000 1.000000 1.000000
0.000000 0.000000 0.000000 -1.000000 -0.000000 -0.000000 0.000000 0.000000
0.000000 0.000000 64.000000 -1.000000 -0.000000 -0.000000 1.000000 0.000000
0.000000 1.000000 64.000000 -1.000000 -0.000000 -0.000000 1.000000 1.000000
0.000000 0.000000 0.000000 -0.000000 -0.000000 -1.000000 0.000000 0.000000
0.000000 1.000000 0.000000 -0.000000 -0.000000 -1.000000 1.000000 0.000000
0.000000 0.000000 64.000000 0.000000 0.000000 1.000000 0.000000 0.000000
1.000000 0.000000 64.000000 0.000000 0.000000 1.000000 1.000000 0.000000
1.000000 1.000000 0.000000 -0.000000 1.000000 0.000000 0.000000 0.000000
0.000000 1.000000 0.000000 -0.000000 1.000000 0.000000 1.000000 0.000000
1.000000 0.000000 0.000000 1.000000 0.000000 0.000000 0.000000 0.000000
1.000000 1.000000 0.000000 1.000000 0.000000 0.000000 1.000000 0.000000
0.000000 0.000000 0.000000 -0.000000 -1.000000 -0.000000 0.000000 0.000000
1.000000 0.000000 0.000000 -0.000000 -1.000000 -0.000000 1.000000 0.000000
0.000000 1.000000 0.000000 -1.000000 0.000000 -0.000000 0.000000 0.000000
0.000000 0.000000 0.000000 -1.000000 0.000000 -0.000000 1.000000 0.000000
3 0 1 2
3 3 4 5
3 6 7 8
3 9 10 11
3 12 13 14
3 15 16 17
3 18 19 2
3 20 21 5
3 22 23 8
3 24 25 11
3 26 27 14
3 28 29 17
